{"glyphs":{"0":{"ha":861,"x_min":0,"x_max":0,"o":"m 431 1064 b 54 524 211 1064 54 828 b 431 -17 54 219 211 -17 b 807 524 650 -17 807 219 b 431 1064 807 828 650 1064 z m 221 524 b 431 903 221 739 303 903 b 640 524 558 903 640 739 b 431 144 640 308 558 144 b 221 524 303 144 221 308 z "},"1":{"ha":861,"x_min":0,"x_max":0,"o":"m 603 1047 l 225 1047 l 121 899 l 431 899 l 431 0 l 603 0 z "},"2":{"ha":861,"x_min":0,"x_max":0,"o":"m 254 729 b 424 900 254 821 322 900 b 581 735 525 900 581 824 b 426 442 581 632 514 546 l 60 0 l 771 0 l 771 149 l 379 149 l 549 347 b 754 744 628 444 754 585 b 421 1063 754 928 626 1063 b 78 729 226 1063 85 911 z "},"3":{"ha":861,"x_min":0,"x_max":0,"o":"m 426 488 b 615 311 533 488 615 422 b 433 129 615 203 538 129 b 250 333 318 129 247 219 l 79 333 b 433 -17 75 132 215 -17 b 781 306 633 -17 781 124 b 610 564 781 431 710 518 b 739 779 679 601 739 679 b 440 1064 739 944 619 1064 b 125 743 240 1064 125 911 l 286 743 b 438 915 283 847 344 915 b 578 774 518 915 578 854 b 426 626 578 685 507 626 l 399 626 l 399 488 z "},"4":{"ha":861,"x_min":0,"x_max":0,"o":"m 664 0 l 664 221 l 851 221 l 851 360 l 664 360 l 664 1081 l -3 221 l 510 221 l 510 0 z m 272 360 l 510 671 l 510 360 z "},"5":{"ha":861,"x_min":0,"x_max":0,"o":"m 413 136 b 186 321 299 136 214 214 l 51 229 b 408 -17 96 90 235 -17 b 788 340 628 -17 788 146 b 450 683 788 528 657 683 b 360 671 419 683 388 678 l 421 899 l 744 899 l 744 1047 l 307 1047 l 160 471 b 389 544 235 517 308 544 b 618 339 529 544 618 457 b 413 136 618 218 529 136 z "},"6":{"ha":861,"x_min":0,"x_max":0,"o":"m 792 344 b 440 692 792 543 638 692 l 429 692 l 646 976 l 513 1065 l 182 621 b 69 343 108 521 69 439 b 431 -17 69 143 231 -17 b 792 344 632 -17 792 143 z m 431 549 b 629 343 540 549 629 461 b 431 139 629 226 540 139 b 232 343 321 139 232 226 b 431 549 232 461 321 549 z "},"7":{"ha":861,"x_min":0,"x_max":0,"o":"m 871 1047 l 54 1047 l 54 899 l 597 899 l 75 67 l 215 -15 z "},"8":{"ha":861,"x_min":0,"x_max":0,"o":"m 431 1064 b 138 788 269 1064 138 949 b 264 568 138 688 192 610 b 81 301 169 529 81 432 b 431 -17 81 118 239 -17 b 781 301 622 -17 781 118 b 597 568 781 432 692 529 b 724 788 669 610 724 688 b 431 1064 724 949 592 1064 z m 431 643 b 290 783 356 643 290 703 b 431 924 290 864 356 924 b 571 783 506 924 571 864 b 431 643 571 703 506 643 z m 431 131 b 251 311 331 131 251 206 b 431 490 251 417 331 490 b 611 311 531 490 611 417 b 431 131 611 206 531 131 z "},"9":{"ha":861,"x_min":0,"x_max":0,"o":"m 69 703 b 421 356 69 504 224 356 l 432 356 l 215 71 l 349 -18 l 679 426 b 792 704 753 526 792 608 b 431 1064 792 904 631 1064 b 69 703 229 1064 69 904 z m 431 499 b 232 704 321 499 232 586 b 431 908 232 821 321 908 b 629 704 540 908 629 821 b 431 499 629 586 540 499 z "}," ":{"ha":861,"x_min":0,"x_max":0,"o":""}," ":{"ha":0,"x_min":0,"x_max":0,"o":""}," ":{"ha":861,"x_min":0,"x_max":0,"o":""},"A":{"ha":861,"x_min":0,"x_max":0,"o":"m 683 0 l 851 0 l 431 1086 l 10 0 l 181 0 l 261 217 l 603 217 z m 433 678 l 554 350 l 311 350 z "},"B":{"ha":861,"x_min":0,"x_max":0,"o":"m 583 556 b 724 771 653 588 724 658 b 386 1047 724 933 594 1047 l 101 1047 l 101 0 l 433 0 b 789 299 660 0 789 124 b 583 556 789 426 706 522 z m 274 903 l 378 903 b 550 751 476 903 550 850 b 378 600 550 653 476 600 l 274 600 z m 274 465 l 425 465 b 615 304 544 465 615 404 b 425 144 615 206 544 144 l 274 144 z "},"C":{"ha":861,"x_min":0,"x_max":0,"o":"m 219 524 b 564 896 219 735 371 896 b 808 794 661 896 747 857 l 808 999 b 558 1064 733 1042 649 1064 b 44 524 275 1064 44 822 b 558 -17 44 225 275 -17 b 808 49 649 -17 733 6 l 808 253 b 564 151 747 190 661 151 b 219 524 371 151 219 313 z "},"D":{"ha":861,"x_min":0,"x_max":0,"o":"m 83 0 l 300 0 b 819 524 606 0 819 215 b 300 1047 819 832 606 1047 l 83 1047 z m 647 524 b 296 149 647 300 501 149 l 257 149 l 257 899 l 297 899 b 647 524 501 899 647 747 z "},"E":{"ha":861,"x_min":0,"x_max":0,"o":"m 124 0 l 749 0 l 749 149 l 296 149 l 296 472 l 743 472 l 743 621 l 296 621 l 296 899 l 749 899 l 749 1047 l 124 1047 z "},"F":{"ha":861,"x_min":0,"x_max":0,"o":"m 125 0 l 297 0 l 297 468 l 742 468 l 742 617 l 297 617 l 297 899 l 747 899 l 747 1047 l 125 1047 z "},"G":{"ha":861,"x_min":0,"x_max":0,"o":"m 828 542 l 472 542 l 472 393 l 663 393 b 457 146 643 249 582 146 b 219 524 321 146 219 313 b 461 899 219 735 325 899 b 643 733 553 899 608 832 l 792 825 b 458 1064 726 979 610 1064 b 47 524 229 1064 47 822 b 454 -17 47 225 225 -17 b 828 542 692 -17 842 211 z "},"H":{"ha":861,"x_min":0,"x_max":0,"o":"m 603 0 l 778 0 l 778 1047 l 603 1047 l 603 629 l 257 629 l 257 1047 l 83 1047 l 83 0 l 257 0 l 257 481 l 603 481 z "},"I":{"ha":861,"x_min":0,"x_max":0,"o":"m 51 149 l 51 0 l 810 0 l 810 149 l 518 149 l 518 899 l 810 899 l 810 1047 l 51 1047 l 51 899 l 343 899 l 343 149 z "},"J":{"ha":861,"x_min":0,"x_max":0,"o":"m 232 358 l 53 358 b 422 -17 53 140 206 -17 b 788 346 631 -17 788 135 l 788 1047 l 614 1047 l 614 358 b 422 140 614 217 535 140 b 232 358 313 140 232 217 z "},"K":{"ha":861,"x_min":0,"x_max":0,"o":"m 267 1047 l 93 1047 l 93 0 l 267 0 l 267 392 l 335 469 l 656 0 l 858 0 l 457 607 l 844 1047 l 638 1047 l 267 615 z "},"L":{"ha":861,"x_min":0,"x_max":0,"o":"m 115 0 l 806 0 l 806 149 l 289 149 l 289 1047 l 115 1047 z "},"M":{"ha":861,"x_min":0,"x_max":0,"o":"m 429 -35 l 599 565 l 700 0 l 861 0 l 646 1086 l 431 406 l 215 1086 l 0 0 l 160 0 l 261 565 z "},"N":{"ha":861,"x_min":0,"x_max":0,"o":"m 83 1086 l 83 0 l 249 0 l 249 644 l 778 -39 l 778 1047 l 613 1047 l 613 403 z "},"O":{"ha":861,"x_min":0,"x_max":0,"o":"m 43 524 b 431 -17 43 231 201 -17 b 818 524 660 -17 818 231 b 431 1064 818 817 660 1064 b 43 524 201 1064 43 817 z m 651 524 b 431 147 651 317 567 147 b 210 524 294 147 210 317 b 431 900 210 732 294 900 b 651 524 567 900 651 732 z "},"P":{"ha":861,"x_min":0,"x_max":0,"o":"m 288 417 l 446 417 b 814 732 658 417 814 533 b 446 1047 814 931 658 1047 l 113 1047 l 113 0 l 288 0 z m 288 901 l 440 901 b 640 732 551 901 640 851 b 440 563 640 614 551 563 l 288 563 z "},"Q":{"ha":861,"x_min":0,"x_max":0,"o":"m 43 524 b 431 -17 43 231 201 -17 b 633 61 506 -17 575 11 l 682 0 l 865 0 l 726 172 b 818 524 785 267 818 390 b 431 1064 818 817 660 1064 b 43 524 201 1064 43 817 z m 653 524 b 618 306 653 442 640 367 l 521 426 l 338 426 l 538 179 b 431 139 507 153 471 139 b 210 524 294 139 210 315 b 431 900 210 732 294 900 b 653 524 567 900 653 732 z "},"R":{"ha":861,"x_min":0,"x_max":0,"o":"m 285 419 l 335 419 l 622 0 l 822 0 l 518 435 b 761 732 664 471 761 575 b 393 1047 761 931 606 1047 l 111 1047 l 111 0 l 285 0 z m 285 901 l 388 901 b 588 732 499 901 588 851 b 388 560 588 614 499 560 l 285 560 z "},"S":{"ha":861,"x_min":0,"x_max":0,"o":"m 789 311 b 294 774 789 671 294 572 b 443 914 294 863 361 914 b 629 789 529 914 588 867 l 751 890 b 449 1064 693 993 590 1064 b 126 761 260 1064 126 935 b 617 300 126 414 617 531 b 432 135 617 200 531 135 b 189 322 318 135 232 204 l 50 242 b 429 -17 100 82 251 -17 b 789 311 631 -17 789 128 z "},"T":{"ha":861,"x_min":0,"x_max":0,"o":"m 829 899 l 829 1047 l 32 1047 l 32 899 l 343 899 l 343 0 l 518 0 l 518 899 z "},"U":{"ha":861,"x_min":0,"x_max":0,"o":"m 429 143 b 242 382 315 143 242 226 l 242 1047 l 67 1047 l 67 375 b 429 -17 67 122 226 -17 b 794 375 633 -17 794 122 l 794 1047 l 619 1047 l 619 382 b 429 143 619 226 544 143 z "},"V":{"ha":861,"x_min":0,"x_max":0,"o":"m 433 393 l 189 1047 l 10 1047 l 431 -39 l 851 1047 l 674 1047 z "},"W":{"ha":861,"x_min":0,"x_max":0,"o":"m 432 1072 l 281 478 l 157 1047 l 0 1047 l 247 -39 l 431 613 l 614 -39 l 861 1047 l 706 1047 l 582 478 z "},"X":{"ha":861,"x_min":0,"x_max":0,"o":"m 221 0 l 439 382 l 653 0 l 844 0 l 536 550 l 822 1047 l 638 1047 l 446 711 l 258 1047 l 67 1047 l 349 543 l 36 0 z "},"Y":{"ha":861,"x_min":0,"x_max":0,"o":"m 518 0 l 518 447 l 847 1047 l 658 1047 l 432 635 l 206 1047 l 13 1047 l 343 447 l 343 0 z "},"Z":{"ha":861,"x_min":0,"x_max":0,"o":"m 535 899 l 33 0 l 810 0 l 810 149 l 307 149 l 807 1047 l 86 1047 l 86 899 z "},"Á":{"ha":861,"x_min":0,"x_max":0,"o":"m 325 1118 l 501 1118 l 725 1383 l 549 1383 z m 683 0 l 851 0 l 431 1086 l 10 0 l 181 0 l 261 217 l 603 217 z m 433 678 l 554 350 l 311 350 z "},"Ă":{"ha":861,"x_min":0,"x_max":0,"o":"m 431 1115 b 665 1358 556 1115 664 1204 l 532 1358 b 431 1238 528 1285 492 1238 b 329 1358 368 1238 332 1285 l 196 1358 b 431 1115 197 1204 306 1115 z m 683 0 l 851 0 l 431 1086 l 10 0 l 181 0 l 261 217 l 603 217 z m 433 678 l 554 350 l 311 350 z "},"Â":{"ha":861,"x_min":0,"x_max":0,"o":"m 431 1410 l 143 1115 l 310 1115 l 431 1242 l 551 1115 l 718 1115 z m 683 0 l 851 0 l 431 1086 l 10 0 l 181 0 l 261 217 l 603 217 z m 433 678 l 554 350 l 311 350 z "},"Ä":{"ha":861,"x_min":0,"x_max":0,"o":"m 269 1132 b 383 1243 332 1132 383 1182 b 269 1356 383 1306 332 1356 b 157 1243 208 1356 157 1306 b 269 1132 157 1182 208 1132 z m 592 1132 b 704 1243 653 1132 704 1182 b 592 1356 704 1306 653 1356 b 478 1243 529 1356 478 1306 b 592 1132 478 1182 529 1132 z m 683 0 l 851 0 l 431 1086 l 10 0 l 181 0 l 261 217 l 603 217 z m 433 678 l 554 350 l 311 350 z "},"À":{"ha":861,"x_min":0,"x_max":0,"o":"m 536 1118 l 313 1383 l 136 1383 l 360 1118 z m 683 0 l 851 0 l 431 1086 l 10 0 l 181 0 l 261 217 l 603 217 z m 433 678 l 554 350 l 311 350 z "},"Ā":{"ha":861,"x_min":0,"x_max":0,"o":"m 199 1149 l 663 1149 l 663 1282 l 199 1282 z m 683 0 l 851 0 l 431 1086 l 10 0 l 181 0 l 261 217 l 603 217 z m 433 678 l 554 350 l 311 350 z "},"Ą":{"ha":861,"x_min":0,"x_max":0,"o":"m 904 -189 l 785 -189 b 728 -244 776 -226 756 -244 b 676 -193 699 -244 676 -228 b 715 -112 676 -167 688 -144 l 817 0 l 851 0 l 431 1086 l 10 0 l 181 0 l 261 217 l 603 217 l 682 4 l 617 -68 b 553 -212 574 -115 553 -161 b 721 -364 553 -306 625 -364 b 904 -189 815 -364 889 -297 z m 433 678 l 554 350 l 311 350 z "},"Å":{"ha":861,"x_min":0,"x_max":0,"o":"m 181 0 l 261 217 l 603 217 l 683 0 l 851 0 l 490 935 b 642 1138 578 960 642 1039 b 431 1347 642 1257 547 1347 b 218 1138 313 1347 218 1257 b 371 935 218 1039 282 960 l 10 0 z m 431 1050 b 343 1138 382 1050 343 1088 b 431 1225 343 1186 382 1225 b 518 1138 479 1225 518 1186 b 431 1050 518 1088 479 1050 z m 433 678 l 554 350 l 311 350 z "},"Ã":{"ha":861,"x_min":0,"x_max":0,"o":"m 585 1369 b 521 1278 585 1310 556 1278 b 326 1368 463 1278 422 1368 b 153 1140 222 1368 153 1278 l 275 1140 b 339 1232 275 1200 304 1232 b 533 1143 399 1232 439 1143 b 707 1369 638 1143 707 1233 z m 683 0 l 851 0 l 431 1086 l 10 0 l 181 0 l 261 217 l 603 217 z m 433 678 l 554 350 l 311 350 z "},"Æ":{"ha":861,"x_min":0,"x_max":0,"o":"m 449 0 l 847 0 l 847 149 l 601 149 l 601 472 l 844 472 l 844 621 l 601 621 l 601 899 l 847 899 l 847 1047 l 326 1047 l 1 0 l 168 0 l 244 253 l 449 253 z m 288 394 l 449 932 l 449 394 z "},"Ǽ":{"ha":861,"x_min":0,"x_max":0,"o":"m 463 1118 l 639 1118 l 863 1383 l 686 1383 z m 449 0 l 847 0 l 847 149 l 601 149 l 601 472 l 844 472 l 844 621 l 601 621 l 601 899 l 847 899 l 847 1047 l 326 1047 l 1 0 l 168 0 l 244 253 l 449 253 z m 288 394 l 449 932 l 449 394 z "},"Ć":{"ha":861,"x_min":0,"x_max":0,"o":"m 438 1118 l 614 1118 l 838 1383 l 661 1383 z m 219 524 b 564 896 219 735 371 896 b 808 794 661 896 747 857 l 808 999 b 558 1064 733 1042 649 1064 b 44 524 275 1064 44 822 b 558 -17 44 225 275 -17 b 808 49 649 -17 733 6 l 808 253 b 564 151 747 190 661 151 b 219 524 371 151 219 313 z "},"Č":{"ha":861,"x_min":0,"x_max":0,"o":"m 543 1110 l 831 1404 l 664 1404 l 543 1278 l 422 1404 l 256 1404 z m 219 524 b 564 896 219 735 371 896 b 808 794 661 896 747 857 l 808 999 b 558 1064 733 1042 649 1064 b 44 524 275 1064 44 822 b 558 -17 44 225 275 -17 b 808 49 649 -17 733 6 l 808 253 b 564 151 747 190 661 151 b 219 524 371 151 219 313 z "},"Ç":{"ha":861,"x_min":0,"x_max":0,"o":"m 219 524 b 564 896 219 735 371 896 b 808 794 661 896 747 857 l 808 999 b 558 1064 733 1042 649 1064 b 44 524 275 1064 44 822 b 558 -17 44 225 275 -17 b 808 49 649 -17 733 6 l 808 253 b 564 151 747 190 661 151 b 219 524 371 151 219 313 z m 285 -351 l 457 -351 l 639 -100 l 467 -100 z "},"Ĉ":{"ha":861,"x_min":0,"x_max":0,"o":"m 543 1410 l 256 1115 l 422 1115 l 543 1242 l 664 1115 l 831 1115 z m 219 524 b 564 896 219 735 371 896 b 808 794 661 896 747 857 l 808 999 b 558 1064 733 1042 649 1064 b 44 524 275 1064 44 822 b 558 -17 44 225 275 -17 b 808 49 649 -17 733 6 l 808 253 b 564 151 747 190 661 151 b 219 524 371 151 219 313 z "},"Ċ":{"ha":861,"x_min":0,"x_max":0,"o":"m 544 1132 b 660 1246 607 1132 660 1182 b 544 1361 660 1310 607 1361 b 429 1246 481 1361 429 1310 b 544 1132 429 1182 481 1132 z m 219 524 b 564 896 219 735 371 896 b 808 794 661 896 747 857 l 808 999 b 558 1064 733 1042 649 1064 b 44 524 275 1064 44 822 b 558 -17 44 225 275 -17 b 808 49 649 -17 733 6 l 808 253 b 564 151 747 190 661 151 b 219 524 371 151 219 313 z "},"Ď":{"ha":861,"x_min":0,"x_max":0,"o":"m 438 1110 l 725 1404 l 558 1404 l 438 1278 l 317 1404 l 150 1404 z m 83 0 l 300 0 b 819 524 606 0 819 215 b 300 1047 819 832 606 1047 l 83 1047 z m 647 524 b 296 149 647 300 501 149 l 257 149 l 257 899 l 297 899 b 647 524 501 899 647 747 z "},"Đ":{"ha":861,"x_min":0,"x_max":0,"o":"m 83 0 l 300 0 b 819 524 606 0 819 215 b 300 1047 819 832 606 1047 l 83 1047 l 83 621 l 0 621 l 0 472 l 83 472 z m 647 524 b 296 149 647 300 501 149 l 257 149 l 257 472 l 449 472 l 449 621 l 257 621 l 257 899 l 297 899 b 647 524 501 899 647 747 z "},"É":{"ha":861,"x_min":0,"x_max":0,"o":"m 332 1118 l 508 1118 l 732 1383 l 556 1383 z m 124 0 l 749 0 l 749 149 l 296 149 l 296 472 l 743 472 l 743 621 l 296 621 l 296 899 l 749 899 l 749 1047 l 124 1047 z "},"Ĕ":{"ha":861,"x_min":0,"x_max":0,"o":"m 439 1115 b 674 1358 564 1115 672 1204 l 540 1358 b 439 1238 536 1285 500 1238 b 338 1358 376 1238 340 1285 l 204 1358 b 439 1115 206 1204 314 1115 z m 124 0 l 749 0 l 749 149 l 296 149 l 296 472 l 743 472 l 743 621 l 296 621 l 296 899 l 749 899 l 749 1047 l 124 1047 z "},"Ě":{"ha":861,"x_min":0,"x_max":0,"o":"m 439 1110 l 726 1404 l 560 1404 l 439 1278 l 318 1404 l 151 1404 z m 124 0 l 749 0 l 749 149 l 296 149 l 296 472 l 743 472 l 743 621 l 296 621 l 296 899 l 749 899 l 749 1047 l 124 1047 z "},"Ê":{"ha":861,"x_min":0,"x_max":0,"o":"m 439 1410 l 151 1115 l 318 1115 l 439 1242 l 560 1115 l 726 1115 z m 124 0 l 749 0 l 749 149 l 296 149 l 296 472 l 743 472 l 743 621 l 296 621 l 296 899 l 749 899 l 749 1047 l 124 1047 z "},"Ë":{"ha":861,"x_min":0,"x_max":0,"o":"m 278 1132 b 392 1243 340 1132 392 1182 b 278 1356 392 1306 340 1356 b 165 1243 217 1356 165 1306 b 278 1132 165 1182 217 1132 z m 600 1132 b 713 1243 661 1132 713 1182 b 600 1356 713 1306 661 1356 b 486 1243 538 1356 486 1306 b 600 1132 486 1182 538 1132 z m 124 0 l 749 0 l 749 149 l 296 149 l 296 472 l 743 472 l 743 621 l 296 621 l 296 899 l 749 899 l 749 1047 l 124 1047 z "},"Ė":{"ha":861,"x_min":0,"x_max":0,"o":"m 439 1132 b 554 1246 501 1132 554 1182 b 439 1361 554 1310 501 1361 b 324 1246 375 1361 324 1310 b 439 1132 324 1182 375 1132 z m 124 0 l 749 0 l 749 149 l 296 149 l 296 472 l 743 472 l 743 621 l 296 621 l 296 899 l 749 899 l 749 1047 l 124 1047 z "},"È":{"ha":861,"x_min":0,"x_max":0,"o":"m 543 1118 l 319 1383 l 143 1383 l 367 1118 z m 124 0 l 749 0 l 749 149 l 296 149 l 296 472 l 743 472 l 743 621 l 296 621 l 296 899 l 749 899 l 749 1047 l 124 1047 z "},"Ē":{"ha":861,"x_min":0,"x_max":0,"o":"m 207 1149 l 671 1149 l 671 1282 l 207 1282 z m 124 0 l 749 0 l 749 149 l 296 149 l 296 472 l 743 472 l 743 621 l 296 621 l 296 899 l 749 899 l 749 1047 l 124 1047 z "},"Ę":{"ha":861,"x_min":0,"x_max":0,"o":"m 124 0 l 496 0 l 433 -68 b 369 -212 390 -115 369 -161 b 538 -364 369 -306 442 -364 b 721 -189 632 -364 706 -297 l 601 -189 b 544 -244 593 -226 572 -244 b 493 -193 515 -244 493 -228 b 532 -112 493 -167 504 -144 l 633 0 l 749 0 l 749 149 l 296 149 l 296 472 l 743 472 l 743 621 l 296 621 l 296 899 l 749 899 l 749 1047 l 124 1047 z "},"Ð":{"ha":861,"x_min":0,"x_max":0,"o":"m 83 0 l 300 0 b 819 524 606 0 819 215 b 300 1047 819 832 606 1047 l 83 1047 l 83 621 l 0 621 l 0 472 l 83 472 z m 647 524 b 296 149 647 300 501 149 l 257 149 l 257 472 l 449 472 l 449 621 l 257 621 l 257 899 l 297 899 b 647 524 501 899 647 747 z "},"Ğ":{"ha":861,"x_min":0,"x_max":0,"o":"m 446 1115 b 681 1358 571 1115 679 1204 l 547 1358 b 446 1238 543 1285 507 1238 b 344 1358 383 1238 347 1285 l 211 1358 b 446 1115 213 1204 321 1115 z m 828 542 l 472 542 l 472 393 l 663 393 b 457 146 643 249 582 146 b 219 524 321 146 219 313 b 461 899 219 735 325 899 b 643 733 553 899 608 832 l 792 825 b 458 1064 726 979 610 1064 b 47 524 229 1064 47 822 b 454 -17 47 225 225 -17 b 828 542 692 -17 842 211 z "},"Ĝ":{"ha":861,"x_min":0,"x_max":0,"o":"m 446 1410 l 158 1115 l 325 1115 l 446 1242 l 567 1115 l 733 1115 z m 828 542 l 472 542 l 472 393 l 663 393 b 457 146 643 249 582 146 b 219 524 321 146 219 313 b 461 899 219 735 325 899 b 643 733 553 899 608 832 l 792 825 b 458 1064 726 979 610 1064 b 47 524 229 1064 47 822 b 454 -17 47 225 225 -17 b 828 542 692 -17 842 211 z "},"Ģ":{"ha":861,"x_min":0,"x_max":0,"o":"m 828 542 l 472 542 l 472 393 l 663 393 b 457 146 643 249 582 146 b 219 524 321 146 219 313 b 461 899 219 735 325 899 b 643 733 553 899 608 832 l 792 825 b 458 1064 726 979 610 1064 b 47 524 229 1064 47 822 b 454 -17 47 225 225 -17 b 828 542 692 -17 842 211 z m 515 -72 l 376 -72 l 376 -222 l 192 -222 l 192 -350 l 515 -350 z "},"Ġ":{"ha":861,"x_min":0,"x_max":0,"o":"m 446 1132 b 561 1246 508 1132 561 1182 b 446 1361 561 1310 508 1361 b 331 1246 382 1361 331 1310 b 446 1132 331 1182 382 1132 z m 828 542 l 472 542 l 472 393 l 663 393 b 457 146 643 249 582 146 b 219 524 321 146 219 313 b 461 899 219 735 325 899 b 643 733 553 899 608 832 l 792 825 b 458 1064 726 979 610 1064 b 47 524 229 1064 47 822 b 454 -17 47 225 225 -17 b 828 542 692 -17 842 211 z "},"Ħ":{"ha":861,"x_min":0,"x_max":0,"o":"m 603 0 l 778 0 l 778 701 l 861 701 l 861 850 l 778 850 l 778 1047 l 603 1047 l 603 850 l 257 850 l 257 1047 l 83 1047 l 83 850 l 0 850 l 0 701 l 83 701 l 83 0 l 257 0 l 257 378 l 603 378 z m 257 526 l 257 701 l 603 701 l 603 526 z "},"Ĥ":{"ha":861,"x_min":0,"x_max":0,"o":"m 431 1410 l 143 1115 l 310 1115 l 431 1242 l 551 1115 l 718 1115 z m 603 0 l 778 0 l 778 1047 l 603 1047 l 603 629 l 257 629 l 257 1047 l 83 1047 l 83 0 l 257 0 l 257 481 l 603 481 z "},"Í":{"ha":861,"x_min":0,"x_max":0,"o":"m 325 1118 l 501 1118 l 725 1383 l 549 1383 z m 51 149 l 51 0 l 810 0 l 810 149 l 518 149 l 518 899 l 810 899 l 810 1047 l 51 1047 l 51 899 l 343 899 l 343 149 z "},"Ĭ":{"ha":861,"x_min":0,"x_max":0,"o":"m 431 1115 b 665 1358 556 1115 664 1204 l 532 1358 b 431 1238 528 1285 492 1238 b 329 1358 368 1238 332 1285 l 196 1358 b 431 1115 197 1204 306 1115 z m 51 149 l 51 0 l 810 0 l 810 149 l 518 149 l 518 899 l 810 899 l 810 1047 l 51 1047 l 51 899 l 343 899 l 343 149 z "},"Î":{"ha":861,"x_min":0,"x_max":0,"o":"m 431 1410 l 143 1115 l 310 1115 l 431 1242 l 551 1115 l 718 1115 z m 51 149 l 51 0 l 810 0 l 810 149 l 518 149 l 518 899 l 810 899 l 810 1047 l 51 1047 l 51 899 l 343 899 l 343 149 z "},"Ï":{"ha":861,"x_min":0,"x_max":0,"o":"m 269 1132 b 383 1243 332 1132 383 1182 b 269 1356 383 1306 332 1356 b 157 1243 208 1356 157 1306 b 269 1132 157 1182 208 1132 z m 592 1132 b 704 1243 653 1132 704 1182 b 592 1356 704 1306 653 1356 b 478 1243 529 1356 478 1306 b 592 1132 478 1182 529 1132 z m 51 149 l 51 0 l 810 0 l 810 149 l 518 149 l 518 899 l 810 899 l 810 1047 l 51 1047 l 51 899 l 343 899 l 343 149 z "},"İ":{"ha":861,"x_min":0,"x_max":0,"o":"m 431 1132 b 546 1246 493 1132 546 1182 b 431 1361 546 1310 493 1361 b 315 1246 367 1361 315 1310 b 431 1132 315 1182 367 1132 z m 51 149 l 51 0 l 810 0 l 810 149 l 518 149 l 518 899 l 810 899 l 810 1047 l 51 1047 l 51 899 l 343 899 l 343 149 z "},"Ì":{"ha":861,"x_min":0,"x_max":0,"o":"m 536 1118 l 313 1383 l 136 1383 l 360 1118 z m 51 149 l 51 0 l 810 0 l 810 149 l 518 149 l 518 899 l 810 899 l 810 1047 l 51 1047 l 51 899 l 343 899 l 343 149 z "},"Ī":{"ha":861,"x_min":0,"x_max":0,"o":"m 199 1149 l 663 1149 l 663 1282 l 199 1282 z m 51 149 l 51 0 l 810 0 l 810 149 l 518 149 l 518 899 l 810 899 l 810 1047 l 51 1047 l 51 899 l 343 899 l 343 149 z "},"Į":{"ha":861,"x_min":0,"x_max":0,"o":"m 51 149 l 51 0 l 381 0 l 318 -68 b 254 -212 275 -115 254 -161 b 422 -364 254 -306 326 -364 b 606 -189 517 -364 590 -297 l 486 -189 b 429 -244 478 -226 457 -244 b 378 -193 400 -244 378 -228 b 417 -112 378 -167 389 -144 l 518 0 l 810 0 l 810 149 l 518 149 l 518 899 l 810 899 l 810 1047 l 51 1047 l 51 899 l 343 899 l 343 149 z "},"Ĩ":{"ha":861,"x_min":0,"x_max":0,"o":"m 585 1369 b 521 1278 585 1310 556 1278 b 326 1368 463 1278 422 1368 b 153 1140 222 1368 153 1278 l 275 1140 b 339 1232 275 1200 304 1232 b 533 1143 399 1232 439 1143 b 707 1369 638 1143 707 1233 z m 51 149 l 51 0 l 810 0 l 810 149 l 518 149 l 518 899 l 810 899 l 810 1047 l 51 1047 l 51 899 l 343 899 l 343 149 z "},"Ĳ":{"ha":1722,"x_min":0,"x_max":0,"o":"m 51 149 l 51 0 l 810 0 l 810 149 l 518 149 l 518 899 l 810 899 l 810 1047 l 51 1047 l 51 899 l 343 899 l 343 149 z m 1093 358 l 914 358 b 1283 -17 914 140 1067 -17 b 1649 346 1492 -17 1649 135 l 1649 1047 l 1475 1047 l 1475 358 b 1283 140 1475 217 1396 140 b 1093 358 1174 140 1093 217 z "},"Ĵ":{"ha":861,"x_min":0,"x_max":0,"o":"m 700 1410 l 413 1115 l 579 1115 l 700 1242 l 821 1115 l 988 1115 z m 232 358 l 53 358 b 422 -17 53 140 206 -17 b 788 346 631 -17 788 135 l 788 1047 l 614 1047 l 614 358 b 422 140 614 217 535 140 b 232 358 313 140 232 217 z "},"Ķ":{"ha":861,"x_min":0,"x_max":0,"o":"m 267 1047 l 93 1047 l 93 0 l 267 0 l 267 392 l 335 469 l 656 0 l 858 0 l 457 607 l 844 1047 l 638 1047 l 267 615 z m 542 -72 l 403 -72 l 403 -222 l 218 -222 l 218 -350 l 542 -350 z "},"Ĺ":{"ha":861,"x_min":0,"x_max":0,"o":"m 107 1118 l 283 1118 l 507 1383 l 331 1383 z m 115 0 l 806 0 l 806 149 l 289 149 l 289 1047 l 115 1047 z "},"Ľ":{"ha":861,"x_min":0,"x_max":0,"o":"m 115 0 l 806 0 l 806 149 l 289 149 l 289 1047 l 115 1047 z m 424 693 l 571 693 l 690 1047 l 542 1047 z "},"Ļ":{"ha":861,"x_min":0,"x_max":0,"o":"m 115 0 l 806 0 l 806 149 l 289 149 l 289 1047 l 115 1047 z m 531 -72 l 392 -72 l 392 -222 l 207 -222 l 207 -350 l 531 -350 z "},"Ŀ":{"ha":861,"x_min":0,"x_max":0,"o":"m 115 0 l 806 0 l 806 149 l 289 149 l 289 1047 l 115 1047 z m 633 463 b 749 578 696 463 749 514 b 633 692 749 640 696 692 b 518 578 571 692 518 640 b 633 463 518 514 571 463 z "},"Ł":{"ha":861,"x_min":0,"x_max":0,"o":"m 115 0 l 806 0 l 806 149 l 289 149 l 289 469 l 535 583 l 535 731 l 289 617 l 289 1047 l 115 1047 l 115 546 l 24 503 l 24 354 l 115 397 z "},"Ń":{"ha":861,"x_min":0,"x_max":0,"o":"m 315 1118 l 492 1118 l 715 1383 l 539 1383 z m 83 1086 l 83 0 l 249 0 l 249 644 l 778 -39 l 778 1047 l 613 1047 l 613 403 z "},"Ň":{"ha":861,"x_min":0,"x_max":0,"o":"m 421 1110 l 708 1404 l 542 1404 l 421 1278 l 300 1404 l 133 1404 z m 83 1086 l 83 0 l 249 0 l 249 644 l 778 -39 l 778 1047 l 613 1047 l 613 403 z "},"Ņ":{"ha":861,"x_min":0,"x_max":0,"o":"m 83 1086 l 83 0 l 249 0 l 249 644 l 778 -39 l 778 1047 l 613 1047 l 613 403 z m 539 -72 l 400 -72 l 400 -222 l 215 -222 l 215 -350 l 539 -350 z "},"Ñ":{"ha":861,"x_min":0,"x_max":0,"o":"m 575 1369 b 511 1278 575 1310 546 1278 b 317 1368 453 1278 413 1368 b 143 1140 213 1368 143 1278 l 265 1140 b 329 1232 265 1200 294 1232 b 524 1143 389 1232 429 1143 b 697 1369 628 1143 697 1233 z m 83 1086 l 83 0 l 249 0 l 249 644 l 778 -39 l 778 1047 l 613 1047 l 613 403 z "},"Ŋ":{"ha":861,"x_min":0,"x_max":0,"o":"m 614 -351 l 778 -351 l 778 1047 l 613 1047 l 613 403 l 83 1086 l 83 0 l 249 0 l 249 644 l 614 163 z "},"Ó":{"ha":861,"x_min":0,"x_max":0,"o":"m 325 1118 l 501 1118 l 725 1383 l 549 1383 z m 43 524 b 431 -17 43 231 201 -17 b 818 524 660 -17 818 231 b 431 1064 818 817 660 1064 b 43 524 201 1064 43 817 z m 651 524 b 431 147 651 317 567 147 b 210 524 294 147 210 317 b 431 900 210 732 294 900 b 651 524 567 900 651 732 z "},"Ŏ":{"ha":861,"x_min":0,"x_max":0,"o":"m 431 1115 b 665 1358 556 1115 664 1204 l 532 1358 b 431 1238 528 1285 492 1238 b 329 1358 368 1238 332 1285 l 196 1358 b 431 1115 197 1204 306 1115 z m 43 524 b 431 -17 43 231 201 -17 b 818 524 660 -17 818 231 b 431 1064 818 817 660 1064 b 43 524 201 1064 43 817 z m 651 524 b 431 147 651 317 567 147 b 210 524 294 147 210 317 b 431 900 210 732 294 900 b 651 524 567 900 651 732 z "},"Ô":{"ha":861,"x_min":0,"x_max":0,"o":"m 431 1410 l 143 1115 l 310 1115 l 431 1242 l 551 1115 l 718 1115 z m 43 524 b 431 -17 43 231 201 -17 b 818 524 660 -17 818 231 b 431 1064 818 817 660 1064 b 43 524 201 1064 43 817 z m 651 524 b 431 147 651 317 567 147 b 210 524 294 147 210 317 b 431 900 210 732 294 900 b 651 524 567 900 651 732 z "},"Ö":{"ha":861,"x_min":0,"x_max":0,"o":"m 269 1132 b 383 1243 332 1132 383 1182 b 269 1356 383 1306 332 1356 b 157 1243 208 1356 157 1306 b 269 1132 157 1182 208 1132 z m 592 1132 b 704 1243 653 1132 704 1182 b 592 1356 704 1306 653 1356 b 478 1243 529 1356 478 1306 b 592 1132 478 1182 529 1132 z m 43 524 b 431 -17 43 231 201 -17 b 818 524 660 -17 818 231 b 431 1064 818 817 660 1064 b 43 524 201 1064 43 817 z m 651 524 b 431 147 651 317 567 147 b 210 524 294 147 210 317 b 431 900 210 732 294 900 b 651 524 567 900 651 732 z "},"Ò":{"ha":861,"x_min":0,"x_max":0,"o":"m 536 1118 l 313 1383 l 136 1383 l 360 1118 z m 43 524 b 431 -17 43 231 201 -17 b 818 524 660 -17 818 231 b 431 1064 818 817 660 1064 b 43 524 201 1064 43 817 z m 651 524 b 431 147 651 317 567 147 b 210 524 294 147 210 317 b 431 900 210 732 294 900 b 651 524 567 900 651 732 z "},"Ő":{"ha":861,"x_min":0,"x_max":0,"o":"m 176 1118 l 342 1118 l 579 1383 l 414 1383 z m 476 1118 l 642 1118 l 879 1383 l 714 1383 z m 43 524 b 431 -17 43 231 201 -17 b 818 524 660 -17 818 231 b 431 1064 818 817 660 1064 b 43 524 201 1064 43 817 z m 651 524 b 431 147 651 317 567 147 b 210 524 294 147 210 317 b 431 900 210 732 294 900 b 651 524 567 900 651 732 z "},"Ō":{"ha":861,"x_min":0,"x_max":0,"o":"m 199 1149 l 663 1149 l 663 1282 l 199 1282 z m 43 524 b 431 -17 43 231 201 -17 b 818 524 660 -17 818 231 b 431 1064 818 817 660 1064 b 43 524 201 1064 43 817 z m 651 524 b 431 147 651 317 567 147 b 210 524 294 147 210 317 b 431 900 210 732 294 900 b 651 524 567 900 651 732 z "},"Ø":{"ha":861,"x_min":0,"x_max":0,"o":"m 818 524 b 746 843 818 642 792 754 l 864 1014 l 761 1092 l 667 957 b 431 1064 603 1024 522 1064 b 43 524 201 1064 43 817 b 115 204 43 406 69 293 l -3 33 l 99 -44 l 193 90 b 431 -17 257 24 339 -17 b 818 524 660 -17 818 231 z m 208 524 b 431 904 208 733 294 904 b 567 831 485 904 531 876 l 233 339 b 208 524 217 394 208 457 z m 653 524 b 431 143 653 314 567 143 b 293 217 376 143 329 171 l 628 708 b 653 524 644 653 653 590 z "},"Ǿ":{"ha":861,"x_min":0,"x_max":0,"o":"m 324 1118 l 500 1118 l 724 1383 l 547 1383 z m 818 524 b 746 843 818 642 792 754 l 864 1014 l 761 1092 l 667 957 b 431 1064 603 1024 522 1064 b 43 524 201 1064 43 817 b 115 204 43 406 69 293 l -3 33 l 99 -44 l 193 90 b 431 -17 257 24 339 -17 b 818 524 660 -17 818 231 z m 208 524 b 431 904 208 733 294 904 b 567 831 485 904 531 876 l 233 339 b 208 524 217 394 208 457 z m 653 524 b 431 143 653 314 567 143 b 293 217 376 143 329 171 l 628 708 b 653 524 644 653 653 590 z "},"Õ":{"ha":861,"x_min":0,"x_max":0,"o":"m 585 1369 b 521 1278 585 1310 556 1278 b 326 1368 463 1278 422 1368 b 153 1140 222 1368 153 1278 l 275 1140 b 339 1232 275 1200 304 1232 b 533 1143 399 1232 439 1143 b 707 1369 638 1143 707 1233 z m 43 524 b 431 -17 43 231 201 -17 b 818 524 660 -17 818 231 b 431 1064 818 817 660 1064 b 43 524 201 1064 43 817 z m 651 524 b 431 147 651 317 567 147 b 210 524 294 147 210 317 b 431 900 210 732 294 900 b 651 524 567 900 651 732 z "},"Œ":{"ha":861,"x_min":0,"x_max":0,"o":"m 836 0 l 836 149 l 592 149 l 592 472 l 833 472 l 833 621 l 592 621 l 592 899 l 836 899 l 836 1047 l 418 1047 b 18 524 194 1047 18 832 b 418 0 18 215 194 0 z m 181 524 b 421 899 181 747 290 894 l 421 149 b 181 524 292 153 181 300 z "},"Ŕ":{"ha":861,"x_min":0,"x_max":0,"o":"m 339 1118 l 515 1118 l 739 1383 l 563 1383 z m 285 419 l 335 419 l 622 0 l 822 0 l 518 435 b 761 732 664 471 761 575 b 393 1047 761 931 606 1047 l 111 1047 l 111 0 l 285 0 z m 285 901 l 388 901 b 588 732 499 901 588 851 b 388 560 588 614 499 560 l 285 560 z "},"Ř":{"ha":861,"x_min":0,"x_max":0,"o":"m 444 1110 l 732 1404 l 565 1404 l 444 1278 l 324 1404 l 157 1404 z m 285 419 l 335 419 l 622 0 l 822 0 l 518 435 b 761 732 664 471 761 575 b 393 1047 761 931 606 1047 l 111 1047 l 111 0 l 285 0 z m 285 901 l 388 901 b 588 732 499 901 588 851 b 388 560 588 614 499 560 l 285 560 z "},"Ŗ":{"ha":861,"x_min":0,"x_max":0,"o":"m 285 419 l 335 419 l 622 0 l 822 0 l 518 435 b 761 732 664 471 761 575 b 393 1047 761 931 606 1047 l 111 1047 l 111 0 l 285 0 z m 285 901 l 388 901 b 588 732 499 901 588 851 b 388 560 588 614 499 560 l 285 560 z m 529 -72 l 390 -72 l 390 -222 l 206 -222 l 206 -350 l 529 -350 z "},"Ś":{"ha":861,"x_min":0,"x_max":0,"o":"m 353 1118 l 529 1118 l 753 1383 l 576 1383 z m 789 311 b 294 774 789 671 294 572 b 443 914 294 863 361 914 b 629 789 529 914 588 867 l 751 890 b 449 1064 693 993 590 1064 b 126 761 260 1064 126 935 b 617 300 126 414 617 531 b 432 135 617 200 531 135 b 189 322 318 135 232 204 l 50 242 b 429 -17 100 82 251 -17 b 789 311 631 -17 789 128 z "},"Š":{"ha":861,"x_min":0,"x_max":0,"o":"m 458 1110 l 746 1404 l 579 1404 l 458 1278 l 338 1404 l 171 1404 z m 789 311 b 294 774 789 671 294 572 b 443 914 294 863 361 914 b 629 789 529 914 588 867 l 751 890 b 449 1064 693 993 590 1064 b 126 761 260 1064 126 935 b 617 300 126 414 617 531 b 432 135 617 200 531 135 b 189 322 318 135 232 204 l 50 242 b 429 -17 100 82 251 -17 b 789 311 631 -17 789 128 z "},"Ş":{"ha":861,"x_min":0,"x_max":0,"o":"m 789 311 b 294 774 789 671 294 572 b 443 914 294 863 361 914 b 629 789 529 914 588 867 l 751 890 b 449 1064 693 993 590 1064 b 126 761 260 1064 126 935 b 617 300 126 414 617 531 b 432 135 617 200 531 135 b 189 322 318 135 232 204 l 50 242 b 429 -17 100 82 251 -17 b 789 311 631 -17 789 128 z m 172 -351 l 344 -351 l 526 -100 l 354 -100 z "},"Ŝ":{"ha":861,"x_min":0,"x_max":0,"o":"m 458 1410 l 171 1115 l 338 1115 l 458 1242 l 579 1115 l 746 1115 z m 789 311 b 294 774 789 671 294 572 b 443 914 294 863 361 914 b 629 789 529 914 588 867 l 751 890 b 449 1064 693 993 590 1064 b 126 761 260 1064 126 935 b 617 300 126 414 617 531 b 432 135 617 200 531 135 b 189 322 318 135 232 204 l 50 242 b 429 -17 100 82 251 -17 b 789 311 631 -17 789 128 z "},"Ș":{"ha":861,"x_min":0,"x_max":0,"o":"m 789 311 b 294 774 789 671 294 572 b 443 914 294 863 361 914 b 629 789 529 914 588 867 l 751 890 b 449 1064 693 993 590 1064 b 126 761 260 1064 126 935 b 617 300 126 414 617 531 b 432 135 617 200 531 135 b 189 322 318 135 232 204 l 50 242 b 429 -17 100 82 251 -17 b 789 311 631 -17 789 128 z m 506 -72 l 367 -72 l 367 -222 l 182 -222 l 182 -350 l 506 -350 z "},"ẞ":{"ha":861,"x_min":0,"x_max":0,"o":"m 410 567 b 669 358 557 567 669 496 b 417 147 669 225 567 147 l 417 -7 b 839 360 640 -10 839 128 b 633 671 839 510 771 610 l 825 1047 l 81 1047 l 81 0 l 254 0 l 254 900 l 581 900 z "},"Ŧ":{"ha":861,"x_min":0,"x_max":0,"o":"m 176 621 l 176 472 l 343 472 l 343 0 l 518 0 l 518 472 l 685 472 l 685 621 l 518 621 l 518 899 l 829 899 l 829 1047 l 32 1047 l 32 899 l 343 899 l 343 621 z "},"Ť":{"ha":861,"x_min":0,"x_max":0,"o":"m 431 1110 l 718 1404 l 551 1404 l 431 1278 l 310 1404 l 143 1404 z m 829 899 l 829 1047 l 32 1047 l 32 899 l 343 899 l 343 0 l 518 0 l 518 899 z "},"Ţ":{"ha":861,"x_min":0,"x_max":0,"o":"m 829 899 l 829 1047 l 32 1047 l 32 899 l 343 899 l 343 0 l 518 0 l 518 899 z m 168 -351 l 340 -351 l 522 -100 l 350 -100 z "},"Ț":{"ha":861,"x_min":0,"x_max":0,"o":"m 829 899 l 829 1047 l 32 1047 l 32 899 l 343 899 l 343 0 l 518 0 l 518 899 z m 501 -72 l 363 -72 l 363 -222 l 178 -222 l 178 -350 l 501 -350 z "},"Þ":{"ha":861,"x_min":0,"x_max":0,"o":"m 288 222 l 446 222 b 814 538 658 222 814 339 b 446 853 814 736 658 853 l 288 853 l 288 1047 l 113 1047 l 113 0 l 288 0 z m 288 707 l 440 707 b 640 538 551 707 640 657 b 440 368 640 419 551 368 l 288 368 z "},"Ú":{"ha":861,"x_min":0,"x_max":0,"o":"m 325 1118 l 501 1118 l 725 1383 l 549 1383 z m 429 143 b 242 382 315 143 242 226 l 242 1047 l 67 1047 l 67 375 b 429 -17 67 122 226 -17 b 794 375 633 -17 794 122 l 794 1047 l 619 1047 l 619 382 b 429 143 619 226 544 143 z "},"Ŭ":{"ha":861,"x_min":0,"x_max":0,"o":"m 431 1115 b 665 1358 556 1115 664 1204 l 532 1358 b 431 1238 528 1285 492 1238 b 329 1358 368 1238 332 1285 l 196 1358 b 431 1115 197 1204 306 1115 z m 429 143 b 242 382 315 143 242 226 l 242 1047 l 67 1047 l 67 375 b 429 -17 67 122 226 -17 b 794 375 633 -17 794 122 l 794 1047 l 619 1047 l 619 382 b 429 143 619 226 544 143 z "},"Û":{"ha":861,"x_min":0,"x_max":0,"o":"m 431 1410 l 143 1115 l 310 1115 l 431 1242 l 551 1115 l 718 1115 z m 429 143 b 242 382 315 143 242 226 l 242 1047 l 67 1047 l 67 375 b 429 -17 67 122 226 -17 b 794 375 633 -17 794 122 l 794 1047 l 619 1047 l 619 382 b 429 143 619 226 544 143 z "},"Ü":{"ha":861,"x_min":0,"x_max":0,"o":"m 269 1132 b 383 1243 332 1132 383 1182 b 269 1356 383 1306 332 1356 b 157 1243 208 1356 157 1306 b 269 1132 157 1182 208 1132 z m 592 1132 b 704 1243 653 1132 704 1182 b 592 1356 704 1306 653 1356 b 478 1243 529 1356 478 1306 b 592 1132 478 1182 529 1132 z m 429 143 b 242 382 315 143 242 226 l 242 1047 l 67 1047 l 67 375 b 429 -17 67 122 226 -17 b 794 375 633 -17 794 122 l 794 1047 l 619 1047 l 619 382 b 429 143 619 226 544 143 z "},"Ù":{"ha":861,"x_min":0,"x_max":0,"o":"m 536 1118 l 313 1383 l 136 1383 l 360 1118 z m 429 143 b 242 382 315 143 242 226 l 242 1047 l 67 1047 l 67 375 b 429 -17 67 122 226 -17 b 794 375 633 -17 794 122 l 794 1047 l 619 1047 l 619 382 b 429 143 619 226 544 143 z "},"Ű":{"ha":861,"x_min":0,"x_max":0,"o":"m 176 1118 l 342 1118 l 579 1383 l 414 1383 z m 476 1118 l 642 1118 l 879 1383 l 714 1383 z m 429 143 b 242 382 315 143 242 226 l 242 1047 l 67 1047 l 67 375 b 429 -17 67 122 226 -17 b 794 375 633 -17 794 122 l 794 1047 l 619 1047 l 619 382 b 429 143 619 226 544 143 z "},"Ū":{"ha":861,"x_min":0,"x_max":0,"o":"m 199 1149 l 663 1149 l 663 1282 l 199 1282 z m 429 143 b 242 382 315 143 242 226 l 242 1047 l 67 1047 l 67 375 b 429 -17 67 122 226 -17 b 794 375 633 -17 794 122 l 794 1047 l 619 1047 l 619 382 b 429 143 619 226 544 143 z "},"Ų":{"ha":861,"x_min":0,"x_max":0,"o":"m 429 143 b 242 382 315 143 242 226 l 242 1047 l 67 1047 l 67 375 b 406 -17 67 132 214 -6 l 360 -68 b 297 -212 317 -115 297 -162 b 465 -364 297 -306 369 -364 b 649 -189 560 -364 633 -297 l 528 -189 b 471 -244 519 -226 500 -244 b 421 -193 443 -244 421 -228 b 458 -112 421 -167 432 -144 l 565 7 b 794 375 700 56 794 182 l 794 1047 l 619 1047 l 619 382 b 429 143 619 226 544 143 z "},"Ů":{"ha":861,"x_min":0,"x_max":0,"o":"m 218 1311 b 431 1100 218 1192 313 1100 b 642 1311 547 1100 642 1192 b 431 1521 642 1431 547 1521 b 218 1311 313 1521 218 1431 z m 431 1224 b 343 1311 382 1224 343 1261 b 431 1399 343 1360 382 1399 b 518 1311 479 1399 518 1360 b 431 1224 518 1261 479 1224 z m 429 143 b 242 382 315 143 242 226 l 242 1047 l 67 1047 l 67 375 b 429 -17 67 122 226 -17 b 794 375 633 -17 794 122 l 794 1047 l 619 1047 l 619 382 b 429 143 619 226 544 143 z "},"Ũ":{"ha":861,"x_min":0,"x_max":0,"o":"m 585 1369 b 521 1278 585 1310 556 1278 b 326 1368 463 1278 422 1368 b 153 1140 222 1368 153 1278 l 275 1140 b 339 1232 275 1200 304 1232 b 533 1143 399 1232 439 1143 b 707 1369 638 1143 707 1233 z m 429 143 b 242 382 315 143 242 226 l 242 1047 l 67 1047 l 67 375 b 429 -17 67 122 226 -17 b 794 375 633 -17 794 122 l 794 1047 l 619 1047 l 619 382 b 429 143 619 226 544 143 z "},"Ẃ":{"ha":861,"x_min":0,"x_max":0,"o":"m 325 1118 l 501 1118 l 725 1383 l 549 1383 z m 432 1072 l 281 478 l 157 1047 l 0 1047 l 247 -39 l 431 613 l 614 -39 l 861 1047 l 706 1047 l 582 478 z "},"Ŵ":{"ha":861,"x_min":0,"x_max":0,"o":"m 431 1410 l 143 1115 l 310 1115 l 431 1242 l 551 1115 l 718 1115 z m 432 1072 l 281 478 l 157 1047 l 0 1047 l 247 -39 l 431 613 l 614 -39 l 861 1047 l 706 1047 l 582 478 z "},"Ẁ":{"ha":861,"x_min":0,"x_max":0,"o":"m 536 1118 l 313 1383 l 136 1383 l 360 1118 z m 432 1072 l 281 478 l 157 1047 l 0 1047 l 247 -39 l 431 613 l 614 -39 l 861 1047 l 706 1047 l 582 478 z "},"Ẅ":{"ha":861,"x_min":0,"x_max":0,"o":"m 269 1132 b 383 1243 332 1132 383 1182 b 269 1356 383 1306 332 1356 b 157 1243 208 1356 157 1306 b 269 1132 157 1182 208 1132 z m 592 1132 b 704 1243 653 1132 704 1182 b 592 1356 704 1306 653 1356 b 478 1243 529 1356 478 1306 b 592 1132 478 1182 529 1132 z m 432 1072 l 281 478 l 157 1047 l 0 1047 l 247 -39 l 431 613 l 614 -39 l 861 1047 l 706 1047 l 582 478 z "},"Ý":{"ha":861,"x_min":0,"x_max":0,"o":"m 325 1118 l 501 1118 l 725 1383 l 549 1383 z m 518 0 l 518 447 l 847 1047 l 658 1047 l 432 635 l 206 1047 l 13 1047 l 343 447 l 343 0 z "},"Ŷ":{"ha":861,"x_min":0,"x_max":0,"o":"m 431 1410 l 143 1115 l 310 1115 l 431 1242 l 551 1115 l 718 1115 z m 518 0 l 518 447 l 847 1047 l 658 1047 l 432 635 l 206 1047 l 13 1047 l 343 447 l 343 0 z "},"Ÿ":{"ha":861,"x_min":0,"x_max":0,"o":"m 269 1132 b 383 1243 332 1132 383 1182 b 269 1356 383 1306 332 1356 b 157 1243 208 1356 157 1306 b 269 1132 157 1182 208 1132 z m 592 1132 b 704 1243 653 1132 704 1182 b 592 1356 704 1306 653 1356 b 478 1243 529 1356 478 1306 b 592 1132 478 1182 529 1132 z m 518 0 l 518 447 l 847 1047 l 658 1047 l 432 635 l 206 1047 l 13 1047 l 343 447 l 343 0 z "},"Ỳ":{"ha":861,"x_min":0,"x_max":0,"o":"m 536 1118 l 313 1383 l 136 1383 l 360 1118 z m 518 0 l 518 447 l 847 1047 l 658 1047 l 432 635 l 206 1047 l 13 1047 l 343 447 l 343 0 z "},"Ź":{"ha":861,"x_min":0,"x_max":0,"o":"m 319 1118 l 496 1118 l 719 1383 l 543 1383 z m 535 899 l 33 0 l 810 0 l 810 149 l 307 149 l 807 1047 l 86 1047 l 86 899 z "},"Ž":{"ha":861,"x_min":0,"x_max":0,"o":"m 425 1110 l 713 1404 l 546 1404 l 425 1278 l 304 1404 l 138 1404 z m 535 899 l 33 0 l 810 0 l 810 149 l 307 149 l 807 1047 l 86 1047 l 86 899 z "},"Ż":{"ha":861,"x_min":0,"x_max":0,"o":"m 425 1132 b 540 1246 488 1132 540 1182 b 425 1361 540 1310 488 1361 b 310 1246 361 1361 310 1310 b 425 1132 310 1182 361 1132 z m 535 899 l 33 0 l 810 0 l 810 149 l 307 149 l 807 1047 l 86 1047 l 86 899 z "},"a":{"ha":861,"x_min":0,"x_max":0,"o":"m 599 675 l 599 586 b 381 692 558 649 475 692 b 49 338 193 692 49 536 b 381 -17 49 139 193 -17 b 599 89 475 -17 558 26 l 599 0 l 763 0 l 763 675 z m 211 338 b 410 546 211 458 297 546 b 606 338 522 546 606 458 b 410 129 606 217 522 129 b 211 338 297 129 211 217 z "},"b":{"ha":861,"x_min":0,"x_max":0,"o":"m 264 1119 l 100 1119 l 100 0 l 264 0 l 264 89 b 481 -17 304 26 388 -17 b 813 338 668 -17 813 139 b 481 692 813 536 668 692 b 264 586 388 692 304 649 z m 651 338 b 451 129 651 217 565 129 b 257 338 340 129 257 217 b 451 546 257 458 340 546 b 651 338 565 546 651 458 z "},"c":{"ha":861,"x_min":0,"x_max":0,"o":"m 532 692 b 153 338 322 692 153 538 b 532 -17 153 138 322 -17 b 706 24 600 -17 654 -1 l 706 196 b 533 132 663 158 607 132 b 308 338 408 132 308 213 b 533 543 308 463 408 543 b 703 481 607 543 661 518 l 703 653 b 532 692 651 676 600 692 z "},"d":{"ha":861,"x_min":0,"x_max":0,"o":"m 597 1119 l 597 586 b 381 692 557 649 474 692 b 49 338 193 692 49 536 b 381 -17 49 139 193 -17 b 597 89 474 -17 557 26 l 597 0 l 761 0 l 761 1119 z m 210 338 b 410 546 210 458 296 546 b 604 338 521 546 604 458 b 410 129 604 217 521 129 b 210 338 296 129 210 217 z "},"e":{"ha":861,"x_min":0,"x_max":0,"o":"m 440 125 b 244 301 343 125 260 194 l 769 301 b 438 692 776 539 639 692 b 90 338 250 692 90 538 b 440 -17 90 138 250 -17 b 750 164 571 -17 685 47 l 629 242 b 440 125 586 167 535 125 z m 438 553 b 608 413 539 553 596 488 l 253 413 b 438 553 279 497 353 553 z "},"f":{"ha":861,"x_min":0,"x_max":0,"o":"m 71 539 l 349 539 l 349 0 l 511 0 l 511 539 l 789 539 l 789 675 l 511 675 l 511 792 b 679 988 511 917 579 988 b 789 967 724 988 753 981 l 789 1117 b 667 1136 761 1128 718 1136 b 349 797 479 1136 349 994 l 349 675 l 71 675 z "},"g":{"ha":861,"x_min":0,"x_max":0,"o":"m 763 -19 l 763 675 l 599 675 l 599 586 b 381 692 558 649 475 692 b 49 338 193 692 49 536 b 381 -17 49 139 193 -17 b 599 89 475 -17 558 26 l 599 -24 b 406 -222 599 -144 515 -222 b 224 -56 307 -222 232 -161 l 64 -56 b 406 -364 68 -247 228 -364 b 763 -19 599 -364 763 -218 z m 211 338 b 410 546 211 458 297 546 b 606 338 522 546 606 458 b 410 129 606 217 522 129 b 211 338 297 129 211 217 z "},"h":{"ha":861,"x_min":0,"x_max":0,"o":"m 574 404 l 574 0 l 738 0 l 738 447 b 497 692 738 586 650 692 b 293 589 406 692 336 650 l 293 1119 l 129 1119 l 129 0 l 293 0 l 293 371 b 440 544 293 475 351 544 b 574 404 525 544 574 489 z "},"i":{"ha":861,"x_min":0,"x_max":0,"o":"m 435 847 b 550 963 499 847 550 899 b 435 1076 550 1025 499 1076 b 319 963 372 1076 319 1025 b 435 847 319 899 372 847 z m 114 0 l 792 0 l 792 136 l 535 136 l 535 675 l 114 675 l 114 539 l 371 539 l 371 136 l 114 136 z "},"j":{"ha":861,"x_min":0,"x_max":0,"o":"m 435 963 b 550 847 435 899 488 847 b 665 963 613 847 665 899 b 550 1076 665 1025 613 1076 b 435 963 488 1076 435 1025 z m 468 -351 l 632 -351 l 632 675 l 90 675 l 90 539 l 468 539 z "},"k":{"ha":861,"x_min":0,"x_max":0,"o":"m 133 1119 l 133 0 l 297 0 l 297 161 l 401 267 l 647 0 l 844 0 l 508 376 l 801 675 l 610 675 l 297 342 l 297 1119 z "},"l":{"ha":861,"x_min":0,"x_max":0,"o":"m 114 0 l 792 0 l 792 136 l 535 136 l 535 1119 l 114 1119 l 114 983 l 371 983 l 371 136 l 114 136 z "},"m":{"ha":861,"x_min":0,"x_max":0,"o":"m 475 600 b 346 692 451 656 411 692 b 208 600 289 692 235 663 l 208 675 l 67 675 l 67 0 l 210 0 l 210 439 b 292 558 210 513 239 558 b 363 463 339 558 363 522 l 363 0 l 506 0 l 506 439 b 588 558 506 513 535 558 b 658 463 635 558 658 522 l 658 0 l 801 0 l 801 503 b 636 692 801 625 728 692 b 475 600 568 692 510 656 z "},"n":{"ha":861,"x_min":0,"x_max":0,"o":"m 574 404 l 574 0 l 738 0 l 738 447 b 497 692 738 586 650 692 b 293 589 406 692 336 650 l 293 675 l 129 675 l 129 0 l 293 0 l 293 371 b 440 544 293 475 351 544 b 574 404 525 544 574 489 z "},"o":{"ha":861,"x_min":0,"x_max":0,"o":"m 74 338 b 431 -17 74 138 236 -17 b 788 338 625 -17 788 138 b 431 692 788 538 625 692 b 74 338 236 692 74 538 z m 235 338 b 431 546 235 458 321 546 b 626 338 540 546 626 458 b 431 129 626 217 540 129 b 235 338 321 129 235 217 z "},"p":{"ha":861,"x_min":0,"x_max":0,"o":"m 264 675 l 100 675 l 100 -351 l 264 -351 l 264 89 b 481 -17 304 26 388 -17 b 813 338 668 -17 813 139 b 481 692 813 536 668 692 b 264 586 388 692 304 649 z m 651 338 b 451 129 651 217 565 129 b 257 338 340 129 257 217 b 451 546 257 458 340 546 b 651 338 565 546 651 458 z "},"q":{"ha":861,"x_min":0,"x_max":0,"o":"m 597 675 l 597 586 b 381 692 557 649 474 692 b 49 338 193 692 49 536 b 381 -17 49 139 193 -17 b 597 89 474 -17 557 26 l 597 -351 l 761 -351 l 761 675 z m 210 338 b 410 546 210 458 296 546 b 604 338 521 546 604 458 b 410 129 604 217 521 129 b 210 338 296 129 210 217 z "},"r":{"ha":861,"x_min":0,"x_max":0,"o":"m 608 386 l 608 297 l 771 297 l 771 421 b 515 692 771 571 676 692 b 293 571 418 692 339 643 l 293 675 l 129 675 l 129 0 l 293 0 l 293 347 b 457 546 293 461 357 546 b 608 386 551 546 608 476 z "},"s":{"ha":861,"x_min":0,"x_max":0,"o":"m 90 146 b 428 -17 151 42 285 -17 b 738 213 600 -17 738 72 b 301 485 738 474 301 361 b 422 565 301 533 350 565 b 610 471 501 565 568 535 l 719 554 b 426 692 668 633 571 692 b 139 469 258 692 139 599 b 574 200 139 206 574 339 b 435 111 574 143 513 111 b 199 236 344 111 246 154 z "},"t":{"ha":861,"x_min":0,"x_max":0,"o":"m 71 539 l 349 539 l 349 0 l 513 0 l 513 539 l 790 539 l 790 675 l 513 675 l 513 907 l 349 907 l 349 675 l 71 675 z "},"u":{"ha":861,"x_min":0,"x_max":0,"o":"m 431 129 b 282 293 338 129 282 189 l 282 675 l 118 675 l 118 282 b 431 -17 118 103 249 -17 b 743 282 613 -17 743 103 l 743 675 l 579 675 l 579 293 b 431 129 579 189 524 129 z "},"v":{"ha":861,"x_min":0,"x_max":0,"o":"m 431 -37 l 815 675 l 646 675 l 436 267 l 225 675 l 46 675 z "},"w":{"ha":861,"x_min":0,"x_max":0,"o":"m 432 700 l 282 315 l 157 675 l 0 675 l 257 -39 l 431 374 l 604 -39 l 861 675 l 706 675 l 581 315 z "},"x":{"ha":861,"x_min":0,"x_max":0,"o":"m 90 675 l 336 354 l 58 0 l 240 0 l 428 242 l 613 0 l 804 0 l 528 360 l 772 675 l 590 675 l 435 474 l 282 675 z "},"y":{"ha":861,"x_min":0,"x_max":0,"o":"m 108 -351 l 281 -351 l 818 675 l 643 675 l 442 289 l 231 675 l 47 675 l 354 121 z "},"z":{"ha":861,"x_min":0,"x_max":0,"o":"m 503 539 l 81 0 l 775 0 l 775 136 l 357 136 l 778 675 l 114 675 l 114 539 z "},"á":{"ha":861,"x_min":0,"x_max":0,"o":"m 339 796 l 510 796 l 703 1061 l 531 1061 z m 599 675 l 599 586 b 381 692 558 649 475 692 b 49 338 193 692 49 536 b 381 -17 49 139 193 -17 b 599 89 475 -17 558 26 l 599 0 l 763 0 l 763 675 z m 211 338 b 410 546 211 458 297 546 b 606 338 522 546 606 458 b 410 129 606 217 522 129 b 211 338 297 129 211 217 z "},"ă":{"ha":861,"x_min":0,"x_max":0,"o":"m 435 821 b 667 1063 557 821 665 910 l 532 1063 b 435 943 529 989 493 943 b 338 1063 375 943 340 989 l 203 1063 b 435 821 204 910 313 821 z m 599 675 l 599 586 b 381 692 558 649 475 692 b 49 338 193 692 49 536 b 381 -17 49 139 193 -17 b 599 89 475 -17 558 26 l 599 0 l 763 0 l 763 675 z m 211 338 b 410 546 211 458 297 546 b 606 338 522 546 606 458 b 410 129 606 217 522 129 b 211 338 297 129 211 217 z "},"â":{"ha":861,"x_min":0,"x_max":0,"o":"m 435 1108 l 167 793 l 319 793 l 435 928 l 550 793 l 703 793 z m 599 675 l 599 586 b 381 692 558 649 475 692 b 49 338 193 692 49 536 b 381 -17 49 139 193 -17 b 599 89 475 -17 558 26 l 599 0 l 763 0 l 763 675 z m 211 338 b 410 546 211 458 297 546 b 606 338 522 546 606 458 b 410 129 606 217 522 129 b 211 338 297 129 211 217 z "},"ä":{"ha":861,"x_min":0,"x_max":0,"o":"m 278 853 b 390 964 339 853 390 903 b 278 1076 390 1026 339 1076 b 165 964 217 1076 165 1026 b 278 853 165 903 217 853 z m 592 853 b 704 964 653 853 704 903 b 592 1076 704 1026 653 1076 b 479 964 531 1076 479 1026 b 592 853 479 903 531 853 z m 599 675 l 599 586 b 381 692 558 649 475 692 b 49 338 193 692 49 536 b 381 -17 49 139 193 -17 b 599 89 475 -17 558 26 l 599 0 l 763 0 l 763 675 z m 211 338 b 410 546 211 458 297 546 b 606 338 522 546 606 458 b 410 129 606 217 522 129 b 211 338 297 129 211 217 z "},"à":{"ha":861,"x_min":0,"x_max":0,"o":"m 528 796 l 336 1061 l 164 1061 l 357 796 z m 599 675 l 599 586 b 381 692 558 649 475 692 b 49 338 193 692 49 536 b 381 -17 49 139 193 -17 b 599 89 475 -17 558 26 l 599 0 l 763 0 l 763 675 z m 211 338 b 410 546 211 458 297 546 b 606 338 522 546 606 458 b 410 129 606 217 522 129 b 211 338 297 129 211 217 z "},"ā":{"ha":861,"x_min":0,"x_max":0,"o":"m 211 860 l 658 860 l 658 993 l 211 993 z m 599 675 l 599 586 b 381 692 558 649 475 692 b 49 338 193 692 49 536 b 381 -17 49 139 193 -17 b 599 89 475 -17 558 26 l 599 0 l 763 0 l 763 675 z m 211 338 b 410 546 211 458 297 546 b 606 338 522 546 606 458 b 410 129 606 217 522 129 b 211 338 297 129 211 217 z "},"ą":{"ha":861,"x_min":0,"x_max":0,"o":"m 599 675 l 599 586 b 381 692 558 649 475 692 b 49 338 193 692 49 536 b 381 -17 49 139 193 -17 b 599 89 475 -17 558 26 l 599 6 l 532 -68 b 468 -212 489 -115 468 -161 b 636 -364 468 -306 540 -364 b 819 -189 731 -364 804 -297 l 700 -189 b 643 -244 692 -226 671 -244 b 592 -193 614 -244 592 -228 b 631 -112 592 -167 603 -144 l 732 0 l 763 0 l 763 675 z m 211 338 b 410 546 211 458 297 546 b 606 338 522 546 606 458 b 410 129 606 217 522 129 b 211 338 297 129 211 217 z "},"å":{"ha":861,"x_min":0,"x_max":0,"o":"m 224 988 b 435 776 224 868 317 776 b 646 988 553 776 646 868 b 435 1197 646 1107 553 1197 b 224 988 317 1197 224 1107 z m 435 900 b 347 988 386 900 347 938 b 435 1075 347 1036 386 1075 b 522 988 483 1075 522 1036 b 435 900 522 938 483 900 z m 599 675 l 599 586 b 381 692 558 649 475 692 b 49 338 193 692 49 536 b 381 -17 49 139 193 -17 b 599 89 475 -17 558 26 l 599 0 l 763 0 l 763 675 z m 211 338 b 410 546 211 458 297 546 b 606 338 522 546 606 458 b 410 129 606 217 522 129 b 211 338 297 129 211 217 z "},"ã":{"ha":861,"x_min":0,"x_max":0,"o":"m 586 1049 b 524 957 586 989 560 957 b 329 1047 464 957 426 1047 b 160 819 231 1047 160 956 l 283 819 b 346 911 283 879 310 911 b 540 821 404 911 443 821 b 710 1049 639 821 710 913 z m 599 675 l 599 586 b 381 692 558 649 475 692 b 49 338 193 692 49 536 b 381 -17 49 139 193 -17 b 599 89 475 -17 558 26 l 599 0 l 763 0 l 763 675 z m 211 338 b 410 546 211 458 297 546 b 606 338 522 546 606 458 b 410 129 606 217 522 129 b 211 338 297 129 211 217 z "},"æ":{"ha":861,"x_min":0,"x_max":0,"o":"m 825 164 l 714 242 b 596 125 688 167 656 125 b 474 301 535 125 483 194 l 839 301 b 594 692 844 539 743 692 b 436 614 535 692 479 663 b 258 692 397 664 338 692 b 67 639 183 692 113 668 l 67 496 b 232 551 114 528 169 551 b 365 483 294 551 342 528 b 346 385 356 453 349 419 b 243 404 315 397 281 404 b 15 196 121 406 15 328 b 239 -17 15 65 118 -17 b 425 75 313 -17 381 18 b 596 -17 471 18 531 -17 b 825 164 693 -17 776 47 z m 592 553 b 697 413 656 553 689 488 l 479 413 b 592 553 494 497 538 553 z m 146 196 b 256 289 146 256 194 289 b 349 258 290 289 322 279 b 374 168 354 226 363 196 b 256 103 343 125 300 103 b 146 196 194 103 146 136 z "},"ǽ":{"ha":861,"x_min":0,"x_max":0,"o":"m 350 796 l 521 796 l 714 1061 l 542 1061 z m 825 164 l 714 242 b 596 125 688 167 656 125 b 474 301 535 125 483 194 l 839 301 b 594 692 844 539 743 692 b 436 614 535 692 479 663 b 258 692 397 664 338 692 b 67 639 183 692 113 668 l 67 496 b 232 551 114 528 169 551 b 365 483 294 551 342 528 b 346 385 356 453 349 419 b 243 404 315 397 281 404 b 15 196 121 406 15 328 b 239 -17 15 65 118 -17 b 425 75 313 -17 381 18 b 596 -17 471 18 531 -17 b 825 164 693 -17 776 47 z m 592 553 b 697 413 656 553 689 488 l 479 413 b 592 553 494 497 538 553 z m 146 196 b 256 289 146 256 194 289 b 349 258 290 289 322 279 b 374 168 354 226 363 196 b 256 103 343 125 300 103 b 146 196 194 103 146 136 z "},"ć":{"ha":861,"x_min":0,"x_max":0,"o":"m 407 796 l 578 796 l 771 1061 l 599 1061 z m 532 692 b 153 338 322 692 153 538 b 532 -17 153 138 322 -17 b 706 24 600 -17 654 -1 l 706 196 b 533 132 663 158 607 132 b 308 338 408 132 308 213 b 533 543 308 463 408 543 b 703 481 607 543 661 518 l 703 653 b 532 692 651 676 600 692 z "},"č":{"ha":861,"x_min":0,"x_max":0,"o":"m 503 765 l 771 1081 l 618 1081 l 503 946 l 388 1081 l 235 1081 z m 532 692 b 153 338 322 692 153 538 b 532 -17 153 138 322 -17 b 706 24 600 -17 654 -1 l 706 196 b 533 132 663 158 607 132 b 308 338 408 132 308 213 b 533 543 308 463 408 543 b 703 481 607 543 661 518 l 703 653 b 532 692 651 676 600 692 z "},"ç":{"ha":861,"x_min":0,"x_max":0,"o":"m 532 692 b 153 338 322 692 153 538 b 532 -17 153 138 322 -17 b 706 24 600 -17 654 -1 l 706 196 b 533 132 663 158 607 132 b 308 338 408 132 308 213 b 533 543 308 463 408 543 b 703 481 607 543 661 518 l 703 653 b 532 692 651 676 600 692 z m 264 -351 l 436 -351 l 618 -100 l 446 -100 z "},"ĉ":{"ha":861,"x_min":0,"x_max":0,"o":"m 503 1108 l 235 793 l 388 793 l 503 928 l 618 793 l 771 793 z m 532 692 b 153 338 322 692 153 538 b 532 -17 153 138 322 -17 b 706 24 600 -17 654 -1 l 706 196 b 533 132 663 158 607 132 b 308 338 408 132 308 213 b 533 543 308 463 408 543 b 703 481 607 543 661 518 l 703 653 b 532 692 651 676 600 692 z "},"ċ":{"ha":861,"x_min":0,"x_max":0,"o":"m 503 847 b 618 963 565 847 618 899 b 503 1076 618 1025 565 1076 b 388 963 440 1076 388 1025 b 503 847 388 899 440 847 z m 532 692 b 153 338 322 692 153 538 b 532 -17 153 138 322 -17 b 706 24 600 -17 654 -1 l 706 196 b 533 132 663 158 607 132 b 308 338 408 132 308 213 b 533 543 308 463 408 543 b 703 481 607 543 661 518 l 703 653 b 532 692 651 676 600 692 z "},"ď":{"ha":861,"x_min":0,"x_max":0,"o":"m 525 1119 l 525 590 b 339 692 496 650 422 692 b 43 338 167 692 43 536 b 339 -17 43 139 167 -17 b 525 85 422 -17 496 25 l 525 0 l 688 0 l 688 1119 z m 726 765 l 858 765 l 958 1119 l 826 1119 z m 203 338 b 369 546 203 458 275 546 b 533 338 463 546 533 458 b 369 129 533 217 463 129 b 203 338 275 129 203 217 z "},"đ":{"ha":861,"x_min":0,"x_max":0,"o":"m 597 1119 l 597 1015 l 388 1015 l 388 879 l 597 879 l 597 586 b 381 692 557 649 474 692 b 49 338 193 692 49 536 b 381 -17 49 139 193 -17 b 597 89 474 -17 557 26 l 597 0 l 761 0 l 761 879 l 857 879 l 857 1015 l 761 1015 l 761 1119 z m 210 338 b 410 546 210 458 296 546 b 604 338 521 546 604 458 b 410 129 604 217 521 129 b 210 338 296 129 210 217 z "},"é":{"ha":861,"x_min":0,"x_max":0,"o":"m 343 796 l 514 796 l 707 1061 l 535 1061 z m 440 125 b 244 301 343 125 260 194 l 769 301 b 438 692 776 539 639 692 b 90 338 250 692 90 538 b 440 -17 90 138 250 -17 b 750 164 571 -17 685 47 l 629 242 b 440 125 586 167 535 125 z m 438 553 b 608 413 539 553 596 488 l 253 413 b 438 553 279 497 353 553 z "},"ĕ":{"ha":861,"x_min":0,"x_max":0,"o":"m 439 821 b 671 1063 561 821 669 910 l 536 1063 b 439 943 533 989 497 943 b 342 1063 379 943 344 989 l 207 1063 b 439 821 208 910 317 821 z m 440 125 b 244 301 343 125 260 194 l 769 301 b 438 692 776 539 639 692 b 90 338 250 692 90 538 b 440 -17 90 138 250 -17 b 750 164 571 -17 685 47 l 629 242 b 440 125 586 167 535 125 z m 438 553 b 608 413 539 553 596 488 l 253 413 b 438 553 279 497 353 553 z "},"ě":{"ha":861,"x_min":0,"x_max":0,"o":"m 439 765 l 707 1081 l 554 1081 l 439 946 l 324 1081 l 171 1081 z m 440 125 b 244 301 343 125 260 194 l 769 301 b 438 692 776 539 639 692 b 90 338 250 692 90 538 b 440 -17 90 138 250 -17 b 750 164 571 -17 685 47 l 629 242 b 440 125 586 167 535 125 z m 438 553 b 608 413 539 553 596 488 l 253 413 b 438 553 279 497 353 553 z "},"ê":{"ha":861,"x_min":0,"x_max":0,"o":"m 439 1108 l 171 793 l 324 793 l 439 928 l 554 793 l 707 793 z m 440 125 b 244 301 343 125 260 194 l 769 301 b 438 692 776 539 639 692 b 90 338 250 692 90 538 b 440 -17 90 138 250 -17 b 750 164 571 -17 685 47 l 629 242 b 440 125 586 167 535 125 z m 438 553 b 608 413 539 553 596 488 l 253 413 b 438 553 279 497 353 553 z "},"ë":{"ha":861,"x_min":0,"x_max":0,"o":"m 282 853 b 394 964 343 853 394 903 b 282 1076 394 1026 343 1076 b 169 964 221 1076 169 1026 b 282 853 169 903 221 853 z m 596 853 b 708 964 657 853 708 903 b 596 1076 708 1026 657 1076 b 483 964 535 1076 483 1026 b 596 853 483 903 535 853 z m 440 125 b 244 301 343 125 260 194 l 769 301 b 438 692 776 539 639 692 b 90 338 250 692 90 538 b 440 -17 90 138 250 -17 b 750 164 571 -17 685 47 l 629 242 b 440 125 586 167 535 125 z m 438 553 b 608 413 539 553 596 488 l 253 413 b 438 553 279 497 353 553 z "},"ė":{"ha":861,"x_min":0,"x_max":0,"o":"m 439 847 b 554 963 501 847 554 899 b 439 1076 554 1025 501 1076 b 324 963 376 1076 324 1025 b 439 847 324 899 376 847 z m 440 125 b 244 301 343 125 260 194 l 769 301 b 438 692 776 539 639 692 b 90 338 250 692 90 538 b 440 -17 90 138 250 -17 b 750 164 571 -17 685 47 l 629 242 b 440 125 586 167 535 125 z m 438 553 b 608 413 539 553 596 488 l 253 413 b 438 553 279 497 353 553 z "},"è":{"ha":861,"x_min":0,"x_max":0,"o":"m 532 796 l 340 1061 l 168 1061 l 361 796 z m 440 125 b 244 301 343 125 260 194 l 769 301 b 438 692 776 539 639 692 b 90 338 250 692 90 538 b 440 -17 90 138 250 -17 b 750 164 571 -17 685 47 l 629 242 b 440 125 586 167 535 125 z m 438 553 b 608 413 539 553 596 488 l 253 413 b 438 553 279 497 353 553 z "},"ē":{"ha":861,"x_min":0,"x_max":0,"o":"m 215 860 l 663 860 l 663 993 l 215 993 z m 440 125 b 244 301 343 125 260 194 l 769 301 b 438 692 776 539 639 692 b 90 338 250 692 90 538 b 440 -17 90 138 250 -17 b 750 164 571 -17 685 47 l 629 242 b 440 125 586 167 535 125 z m 438 553 b 608 413 539 553 596 488 l 253 413 b 438 553 279 497 353 553 z "},"ę":{"ha":861,"x_min":0,"x_max":0,"o":"m 90 338 b 440 -17 90 138 250 -17 b 471 -15 450 -17 461 -17 l 417 -74 b 357 -214 379 -112 357 -164 b 524 -364 357 -304 426 -364 b 707 -189 619 -364 692 -297 l 588 -189 b 531 -244 579 -226 558 -244 b 479 -193 503 -244 479 -228 b 521 -108 479 -167 490 -143 l 683 69 b 750 164 708 97 731 128 l 629 242 b 440 125 586 167 535 125 b 244 301 343 125 260 194 l 769 301 b 438 692 776 539 639 692 b 90 338 250 692 90 538 z m 438 553 b 608 413 539 553 596 488 l 253 413 b 438 553 279 497 353 553 z "},"ð":{"ha":861,"x_min":0,"x_max":0,"o":"m 431 685 b 75 338 238 685 75 538 b 432 -17 75 138 236 -17 b 789 371 626 -17 789 133 b 561 896 789 565 703 744 l 667 938 l 667 1071 l 463 989 b 244 1140 397 1044 324 1096 l 151 1040 b 315 931 211 1007 265 969 l 181 876 l 181 744 l 419 839 b 574 642 486 775 538 707 b 431 685 536 667 486 685 z m 432 129 b 236 338 322 129 236 217 b 432 546 236 458 322 546 b 628 338 540 546 628 458 b 432 129 628 217 540 129 z "},"ğ":{"ha":861,"x_min":0,"x_max":0,"o":"m 435 821 b 667 1063 557 821 665 910 l 532 1063 b 435 943 529 989 493 943 b 338 1063 375 943 340 989 l 203 1063 b 435 821 204 910 313 821 z m 763 -19 l 763 675 l 599 675 l 599 586 b 381 692 558 649 475 692 b 49 338 193 692 49 536 b 381 -17 49 139 193 -17 b 599 89 475 -17 558 26 l 599 -24 b 406 -222 599 -144 515 -222 b 224 -56 307 -222 232 -161 l 64 -56 b 406 -364 68 -247 228 -364 b 763 -19 599 -364 763 -218 z m 211 338 b 410 546 211 458 297 546 b 606 338 522 546 606 458 b 410 129 606 217 522 129 b 211 338 297 129 211 217 z "},"ĝ":{"ha":861,"x_min":0,"x_max":0,"o":"m 435 1108 l 167 793 l 319 793 l 435 928 l 550 793 l 703 793 z m 763 -19 l 763 675 l 599 675 l 599 586 b 381 692 558 649 475 692 b 49 338 193 692 49 536 b 381 -17 49 139 193 -17 b 599 89 475 -17 558 26 l 599 -24 b 406 -222 599 -144 515 -222 b 224 -56 307 -222 232 -161 l 64 -56 b 406 -364 68 -247 228 -364 b 763 -19 599 -364 763 -218 z m 211 338 b 410 546 211 458 297 546 b 606 338 522 546 606 458 b 410 129 606 217 522 129 b 211 338 297 129 211 217 z "},"ģ":{"ha":861,"x_min":0,"x_max":0,"o":"m 363 793 l 501 793 l 501 943 l 686 943 l 686 1071 l 363 1071 z m 763 -19 l 763 675 l 599 675 l 599 586 b 381 692 558 649 475 692 b 49 338 193 692 49 536 b 381 -17 49 139 193 -17 b 599 89 475 -17 558 26 l 599 -24 b 406 -222 599 -144 515 -222 b 224 -56 307 -222 232 -161 l 64 -56 b 406 -364 68 -247 228 -364 b 763 -19 599 -364 763 -218 z m 211 338 b 410 546 211 458 297 546 b 606 338 522 546 606 458 b 410 129 606 217 522 129 b 211 338 297 129 211 217 z "},"ġ":{"ha":861,"x_min":0,"x_max":0,"o":"m 435 847 b 550 963 497 847 550 899 b 435 1076 550 1025 497 1076 b 319 963 372 1076 319 1025 b 435 847 319 899 372 847 z m 763 -19 l 763 675 l 599 675 l 599 586 b 381 692 558 649 475 692 b 49 338 193 692 49 536 b 381 -17 49 139 193 -17 b 599 89 475 -17 558 26 l 599 -24 b 406 -222 599 -144 515 -222 b 224 -56 307 -222 232 -161 l 64 -56 b 406 -364 68 -247 228 -364 b 763 -19 599 -364 763 -218 z m 211 338 b 410 546 211 458 297 546 b 606 338 522 546 606 458 b 410 129 606 217 522 129 b 211 338 297 129 211 217 z "},"ß":{"ha":861,"x_min":0,"x_max":0,"o":"m 401 533 b 643 340 540 533 643 465 b 401 140 643 215 542 140 l 401 -7 b 804 339 614 -10 804 119 b 590 628 804 482 710 581 b 736 868 661 663 736 743 b 433 1150 736 1029 618 1150 b 110 811 233 1150 110 997 l 110 0 l 272 0 l 272 807 b 433 1003 272 921 331 1003 b 581 857 521 1003 581 942 b 401 683 581 754 497 683 z "},"ħ":{"ha":861,"x_min":0,"x_max":0,"o":"m 574 404 l 574 0 l 738 0 l 738 447 b 497 692 738 586 650 692 b 293 589 406 692 336 650 l 293 879 l 504 879 l 504 1015 l 293 1015 l 293 1119 l 129 1119 l 129 1015 l 35 1015 l 35 879 l 129 879 l 129 0 l 293 0 l 293 371 b 440 544 293 475 351 544 b 574 404 525 544 574 489 z "},"ĥ":{"ha":861,"x_min":0,"x_max":0,"o":"m 433 1482 l 146 1188 l 313 1188 l 433 1314 l 554 1188 l 721 1188 z m 574 404 l 574 0 l 738 0 l 738 447 b 497 692 738 586 650 692 b 293 589 406 692 336 650 l 293 1119 l 129 1119 l 129 0 l 293 0 l 293 371 b 440 544 293 475 351 544 b 574 404 525 544 574 489 z "},"ı":{"ha":861,"x_min":0,"x_max":0,"o":"m 114 0 l 792 0 l 792 136 l 535 136 l 535 675 l 114 675 l 114 539 l 371 539 l 371 136 l 114 136 z "},"í":{"ha":861,"x_min":0,"x_max":0,"o":"m 347 796 l 518 796 l 711 1061 l 539 1061 z m 114 0 l 792 0 l 792 136 l 535 136 l 535 675 l 114 675 l 114 539 l 371 539 l 371 136 l 114 136 z "},"ĭ":{"ha":861,"x_min":0,"x_max":0,"o":"m 443 821 b 675 1063 565 821 674 910 l 540 1063 b 443 943 538 989 501 943 b 346 1063 383 943 349 989 l 211 1063 b 443 821 213 910 321 821 z m 114 0 l 792 0 l 792 136 l 535 136 l 535 675 l 114 675 l 114 539 l 371 539 l 371 136 l 114 136 z "},"î":{"ha":861,"x_min":0,"x_max":0,"o":"m 443 1108 l 175 793 l 328 793 l 443 928 l 558 793 l 711 793 z m 114 0 l 792 0 l 792 136 l 535 136 l 535 675 l 114 675 l 114 539 l 371 539 l 371 136 l 114 136 z "},"ï":{"ha":861,"x_min":0,"x_max":0,"o":"m 286 853 b 399 964 347 853 399 903 b 286 1076 399 1026 347 1076 b 174 964 225 1076 174 1026 b 286 853 174 903 225 853 z m 600 853 b 713 964 661 853 713 903 b 600 1076 713 1026 661 1076 b 488 964 539 1076 488 1026 b 600 853 488 903 539 853 z m 114 0 l 792 0 l 792 136 l 535 136 l 535 675 l 114 675 l 114 539 l 371 539 l 371 136 l 114 136 z "},"ì":{"ha":861,"x_min":0,"x_max":0,"o":"m 536 796 l 344 1061 l 172 1061 l 365 796 z m 114 0 l 792 0 l 792 136 l 535 136 l 535 675 l 114 675 l 114 539 l 371 539 l 371 136 l 114 136 z "},"ī":{"ha":861,"x_min":0,"x_max":0,"o":"m 219 860 l 667 860 l 667 993 l 219 993 z m 114 0 l 792 0 l 792 136 l 535 136 l 535 675 l 114 675 l 114 539 l 371 539 l 371 136 l 114 136 z "},"į":{"ha":861,"x_min":0,"x_max":0,"o":"m 435 847 b 550 963 499 847 550 899 b 435 1076 550 1025 499 1076 b 319 963 372 1076 319 1025 b 435 847 319 899 372 847 z m 114 0 l 397 0 l 335 -68 b 271 -212 292 -115 271 -161 b 439 -364 271 -306 343 -364 b 622 -189 533 -364 607 -297 l 503 -189 b 446 -244 494 -226 474 -244 b 394 -193 417 -244 394 -228 b 433 -112 394 -167 406 -144 l 535 0 l 792 0 l 792 136 l 535 136 l 535 675 l 114 675 l 114 539 l 371 539 l 371 136 l 114 136 z "},"ĩ":{"ha":861,"x_min":0,"x_max":0,"o":"m 594 1049 b 532 957 594 989 568 957 b 338 1047 472 957 435 1047 b 168 819 239 1047 168 956 l 292 819 b 354 911 292 879 318 911 b 549 821 413 911 451 821 b 718 1049 647 821 718 913 z m 114 0 l 792 0 l 792 136 l 535 136 l 535 675 l 114 675 l 114 539 l 371 539 l 371 136 l 114 136 z "},"ĳ":{"ha":1722,"x_min":0,"x_max":0,"o":"m 532 847 b 647 963 596 847 647 899 b 532 1076 647 1025 596 1076 b 417 963 469 1076 417 1025 b 532 847 417 899 469 847 z m 1258 963 b 1374 847 1258 899 1311 847 b 1489 963 1436 847 1489 899 b 1374 1076 1489 1025 1436 1076 b 1258 963 1311 1076 1258 1025 z m 211 0 l 889 0 l 889 136 l 632 136 l 632 675 l 211 675 l 211 539 l 468 539 l 468 136 l 211 136 z m 1292 -351 l 1456 -351 l 1456 675 l 914 675 l 914 539 l 1292 539 z "},"ȷ":{"ha":861,"x_min":0,"x_max":0,"o":"m 90 539 l 468 539 l 468 -351 l 632 -351 l 632 675 l 90 675 z "},"ĵ":{"ha":861,"x_min":0,"x_max":0,"o":"m 547 1108 l 279 793 l 432 793 l 547 928 l 663 793 l 815 793 z m 90 539 l 468 539 l 468 -351 l 632 -351 l 632 675 l 90 675 z "},"ķ":{"ha":861,"x_min":0,"x_max":0,"o":"m 133 1119 l 133 0 l 297 0 l 297 161 l 401 267 l 647 0 l 844 0 l 508 376 l 801 675 l 610 675 l 297 342 l 297 1119 z m 550 -72 l 411 -72 l 411 -222 l 226 -222 l 226 -350 l 550 -350 z "},"ĸ":{"ha":861,"x_min":0,"x_max":0,"o":"m 133 675 l 133 0 l 297 0 l 297 161 l 401 267 l 647 0 l 844 0 l 508 376 l 801 675 l 610 675 l 297 342 l 297 675 z "},"ĺ":{"ha":861,"x_min":0,"x_max":0,"o":"m 347 1190 l 524 1190 l 747 1456 l 571 1456 z m 114 0 l 792 0 l 792 136 l 535 136 l 535 1119 l 114 1119 l 114 983 l 371 983 l 371 136 l 114 136 z "},"ľ":{"ha":861,"x_min":0,"x_max":0,"o":"m 114 0 l 792 0 l 792 136 l 535 136 l 535 1119 l 114 1119 l 114 983 l 371 983 l 371 136 l 114 136 z m 594 765 l 742 765 l 861 1119 l 713 1119 z "},"ļ":{"ha":861,"x_min":0,"x_max":0,"o":"m 114 0 l 792 0 l 792 136 l 535 136 l 535 1119 l 114 1119 l 114 983 l 371 983 l 371 136 l 114 136 z m 524 -72 l 385 -72 l 385 -222 l 200 -222 l 200 -350 l 524 -350 z "},"ŀ":{"ha":861,"x_min":0,"x_max":0,"o":"m 114 0 l 792 0 l 792 136 l 535 136 l 535 1119 l 114 1119 l 114 983 l 371 983 l 371 136 l 114 136 z m 883 471 b 999 586 946 471 999 522 b 883 700 999 649 946 700 b 768 586 821 700 768 649 b 883 471 768 522 821 471 z "},"ł":{"ha":861,"x_min":0,"x_max":0,"o":"m 114 0 l 792 0 l 792 136 l 535 136 l 535 526 l 788 642 l 788 786 l 535 671 l 535 1119 l 114 1119 l 114 983 l 371 983 l 371 607 l 115 489 l 115 344 l 371 461 l 371 136 l 114 136 z "},"ń":{"ha":861,"x_min":0,"x_max":0,"o":"m 328 796 l 499 796 l 692 1061 l 519 1061 z m 574 404 l 574 0 l 738 0 l 738 447 b 497 692 738 586 650 692 b 293 589 406 692 336 650 l 293 675 l 129 675 l 129 0 l 293 0 l 293 371 b 440 544 293 475 351 544 b 574 404 525 544 574 489 z "},"ň":{"ha":861,"x_min":0,"x_max":0,"o":"m 424 765 l 692 1081 l 539 1081 l 424 946 l 308 1081 l 156 1081 z m 574 404 l 574 0 l 738 0 l 738 447 b 497 692 738 586 650 692 b 293 589 406 692 336 650 l 293 675 l 129 675 l 129 0 l 293 0 l 293 371 b 440 544 293 475 351 544 b 574 404 525 544 574 489 z "},"ņ":{"ha":861,"x_min":0,"x_max":0,"o":"m 574 404 l 574 0 l 738 0 l 738 447 b 497 692 738 586 650 692 b 293 589 406 692 336 650 l 293 675 l 129 675 l 129 0 l 293 0 l 293 371 b 440 544 293 475 351 544 b 574 404 525 544 574 489 z m 504 -72 l 365 -72 l 365 -222 l 181 -222 l 181 -350 l 504 -350 z "},"ñ":{"ha":861,"x_min":0,"x_max":0,"o":"m 575 1049 b 513 957 575 989 549 957 b 318 1047 453 957 415 1047 b 149 819 219 1047 149 956 l 272 819 b 335 911 272 879 299 911 b 529 821 393 911 432 821 b 699 1049 628 821 699 913 z m 574 404 l 574 0 l 738 0 l 738 447 b 497 692 738 586 650 692 b 293 589 406 692 336 650 l 293 675 l 129 675 l 129 0 l 293 0 l 293 371 b 440 544 293 475 351 544 b 574 404 525 544 574 489 z "},"ŋ":{"ha":861,"x_min":0,"x_max":0,"o":"m 574 404 l 574 -351 l 738 -351 l 738 447 b 497 692 738 586 650 692 b 293 589 406 692 336 650 l 293 675 l 129 675 l 129 0 l 293 0 l 293 371 b 440 544 293 475 351 544 b 574 404 525 544 574 489 z "},"ó":{"ha":861,"x_min":0,"x_max":0,"o":"m 335 796 l 506 796 l 699 1061 l 526 1061 z m 74 338 b 431 -17 74 138 236 -17 b 788 338 625 -17 788 138 b 431 692 788 538 625 692 b 74 338 236 692 74 538 z m 235 338 b 431 546 235 458 321 546 b 626 338 540 546 626 458 b 431 129 626 217 540 129 b 235 338 321 129 235 217 z "},"ŏ":{"ha":861,"x_min":0,"x_max":0,"o":"m 431 821 b 663 1063 553 821 661 910 l 528 1063 b 431 943 525 989 489 943 b 333 1063 371 943 336 989 l 199 1063 b 431 821 200 910 308 821 z m 74 338 b 431 -17 74 138 236 -17 b 788 338 625 -17 788 138 b 431 692 788 538 625 692 b 74 338 236 692 74 538 z m 235 338 b 431 546 235 458 321 546 b 626 338 540 546 626 458 b 431 129 626 217 540 129 b 235 338 321 129 235 217 z "},"ô":{"ha":861,"x_min":0,"x_max":0,"o":"m 431 1108 l 163 793 l 315 793 l 431 928 l 546 793 l 699 793 z m 74 338 b 431 -17 74 138 236 -17 b 788 338 625 -17 788 138 b 431 692 788 538 625 692 b 74 338 236 692 74 538 z m 235 338 b 431 546 235 458 321 546 b 626 338 540 546 626 458 b 431 129 626 217 540 129 b 235 338 321 129 235 217 z "},"ö":{"ha":861,"x_min":0,"x_max":0,"o":"m 274 853 b 386 964 335 853 386 903 b 274 1076 386 1026 335 1076 b 161 964 213 1076 161 1026 b 274 853 161 903 213 853 z m 588 853 b 700 964 649 853 700 903 b 588 1076 700 1026 649 1076 b 475 964 526 1076 475 1026 b 588 853 475 903 526 853 z m 74 338 b 431 -17 74 138 236 -17 b 788 338 625 -17 788 138 b 431 692 788 538 625 692 b 74 338 236 692 74 538 z m 235 338 b 431 546 235 458 321 546 b 626 338 540 546 626 458 b 431 129 626 217 540 129 b 235 338 321 129 235 217 z "},"ò":{"ha":861,"x_min":0,"x_max":0,"o":"m 524 796 l 332 1061 l 160 1061 l 353 796 z m 74 338 b 431 -17 74 138 236 -17 b 788 338 625 -17 788 138 b 431 692 788 538 625 692 b 74 338 236 692 74 538 z m 235 338 b 431 546 235 458 321 546 b 626 338 540 546 626 458 b 431 129 626 217 540 129 b 235 338 321 129 235 217 z "},"ő":{"ha":861,"x_min":0,"x_max":0,"o":"m 213 796 l 372 796 l 558 1061 l 399 1061 z m 489 796 l 649 796 l 835 1061 l 675 1061 z m 74 338 b 431 -17 74 138 236 -17 b 788 338 625 -17 788 138 b 431 692 788 538 625 692 b 74 338 236 692 74 538 z m 235 338 b 431 546 235 458 321 546 b 626 338 540 546 626 458 b 431 129 626 217 540 129 b 235 338 321 129 235 217 z "},"ō":{"ha":861,"x_min":0,"x_max":0,"o":"m 207 860 l 654 860 l 654 993 l 207 993 z m 74 338 b 431 -17 74 138 236 -17 b 788 338 625 -17 788 138 b 431 692 788 538 625 692 b 74 338 236 692 74 538 z m 235 338 b 431 546 235 458 321 546 b 626 338 540 546 626 458 b 431 129 626 217 540 129 b 235 338 321 129 235 217 z "},"ø":{"ha":861,"x_min":0,"x_max":0,"o":"m 74 338 b 133 139 74 264 96 196 l 24 32 l 106 -49 l 213 56 b 431 -17 274 10 349 -17 b 788 338 625 -17 788 138 b 728 536 788 411 765 479 l 838 643 l 756 724 l 649 619 b 431 692 588 665 513 692 b 74 338 236 692 74 538 z m 231 338 b 431 550 231 463 318 550 b 538 519 469 550 507 539 l 251 239 b 231 338 238 267 231 301 z m 631 338 b 431 125 631 213 543 125 b 324 156 392 125 354 136 l 610 436 b 631 338 624 408 631 374 z "},"ǿ":{"ha":861,"x_min":0,"x_max":0,"o":"m 335 796 l 506 796 l 699 1061 l 526 1061 z m 74 338 b 133 139 74 264 96 196 l 24 32 l 106 -49 l 213 56 b 431 -17 274 10 349 -17 b 788 338 625 -17 788 138 b 728 536 788 411 765 479 l 838 643 l 756 724 l 649 619 b 431 692 588 665 513 692 b 74 338 236 692 74 538 z m 231 338 b 431 550 231 463 318 550 b 538 519 469 550 507 539 l 251 239 b 231 338 238 267 231 301 z m 631 338 b 431 125 631 213 543 125 b 324 156 392 125 354 136 l 610 436 b 631 338 624 408 631 374 z "},"õ":{"ha":861,"x_min":0,"x_max":0,"o":"m 582 1049 b 519 957 582 989 556 957 b 325 1047 460 957 422 1047 b 156 819 226 1047 156 956 l 279 819 b 342 911 279 879 306 911 b 536 821 400 911 439 821 b 706 1049 635 821 706 913 z m 74 338 b 431 -17 74 138 236 -17 b 788 338 625 -17 788 138 b 431 692 788 538 625 692 b 74 338 236 692 74 538 z m 235 338 b 431 546 235 458 321 546 b 626 338 540 546 626 458 b 431 129 626 217 540 129 b 235 338 321 129 235 217 z "},"œ":{"ha":861,"x_min":0,"x_max":0,"o":"m 24 338 b 264 -17 24 138 132 -17 b 442 99 335 -17 397 26 b 615 -17 485 26 547 -17 b 825 164 704 -17 781 47 l 717 242 b 614 125 694 167 665 125 b 506 301 560 125 514 194 l 839 301 b 614 692 843 539 750 692 b 442 576 547 692 485 649 b 264 692 397 649 335 692 b 24 338 132 692 24 538 z m 613 553 b 706 408 667 553 700 488 l 510 408 b 613 553 524 496 565 553 z m 158 338 b 269 546 158 458 207 546 b 378 338 331 546 378 458 b 269 129 378 217 331 129 b 158 338 207 129 158 217 z "},"ŕ":{"ha":861,"x_min":0,"x_max":0,"o":"m 344 796 l 515 796 l 708 1061 l 536 1061 z m 608 386 l 608 297 l 771 297 l 771 421 b 515 692 771 571 676 692 b 293 571 418 692 339 643 l 293 675 l 129 675 l 129 0 l 293 0 l 293 347 b 457 546 293 461 357 546 b 608 386 551 546 608 476 z "},"ř":{"ha":861,"x_min":0,"x_max":0,"o":"m 440 765 l 708 1081 l 556 1081 l 440 946 l 325 1081 l 172 1081 z m 608 386 l 608 297 l 771 297 l 771 421 b 515 692 771 571 676 692 b 293 571 418 692 339 643 l 293 675 l 129 675 l 129 0 l 293 0 l 293 347 b 457 546 293 461 357 546 b 608 386 551 546 608 476 z "},"ŗ":{"ha":861,"x_min":0,"x_max":0,"o":"m 608 386 l 608 297 l 771 297 l 771 421 b 515 692 771 571 676 692 b 293 571 418 692 339 643 l 293 675 l 129 675 l 129 0 l 293 0 l 293 347 b 457 546 293 461 357 546 b 608 386 551 546 608 476 z m 536 -72 l 397 -72 l 397 -222 l 213 -222 l 213 -350 l 536 -350 z "},"ś":{"ha":861,"x_min":0,"x_max":0,"o":"m 328 796 l 499 796 l 692 1061 l 519 1061 z m 90 146 b 428 -17 151 42 285 -17 b 738 213 600 -17 738 72 b 301 485 738 474 301 361 b 422 565 301 533 350 565 b 610 471 501 565 568 535 l 719 554 b 426 692 668 633 571 692 b 139 469 258 692 139 599 b 574 200 139 206 574 339 b 435 111 574 143 513 111 b 199 236 344 111 246 154 z "},"š":{"ha":861,"x_min":0,"x_max":0,"o":"m 424 765 l 692 1081 l 539 1081 l 424 946 l 308 1081 l 156 1081 z m 90 146 b 428 -17 151 42 285 -17 b 738 213 600 -17 738 72 b 301 485 738 474 301 361 b 422 565 301 533 350 565 b 610 471 501 565 568 535 l 719 554 b 426 692 668 633 571 692 b 139 469 258 692 139 599 b 574 200 139 206 574 339 b 435 111 574 143 513 111 b 199 236 344 111 246 154 z "},"ş":{"ha":861,"x_min":0,"x_max":0,"o":"m 90 146 b 428 -17 151 42 285 -17 b 738 213 600 -17 738 72 b 301 485 738 474 301 361 b 422 565 301 533 350 565 b 610 471 501 565 568 535 l 719 554 b 426 692 668 633 571 692 b 139 469 258 692 139 599 b 574 200 139 206 574 339 b 435 111 574 143 513 111 b 199 236 344 111 246 154 z m 164 -351 l 336 -351 l 518 -100 l 346 -100 z "},"ŝ":{"ha":861,"x_min":0,"x_max":0,"o":"m 424 1108 l 156 793 l 308 793 l 424 928 l 539 793 l 692 793 z m 90 146 b 428 -17 151 42 285 -17 b 738 213 600 -17 738 72 b 301 485 738 474 301 361 b 422 565 301 533 350 565 b 610 471 501 565 568 535 l 719 554 b 426 692 668 633 571 692 b 139 469 258 692 139 599 b 574 200 139 206 574 339 b 435 111 574 143 513 111 b 199 236 344 111 246 154 z "},"ș":{"ha":861,"x_min":0,"x_max":0,"o":"m 90 146 b 428 -17 151 42 285 -17 b 738 213 600 -17 738 72 b 301 485 738 474 301 361 b 422 565 301 533 350 565 b 610 471 501 565 568 535 l 719 554 b 426 692 668 633 571 692 b 139 469 258 692 139 599 b 574 200 139 206 574 339 b 435 111 574 143 513 111 b 199 236 344 111 246 154 z m 496 -72 l 357 -72 l 357 -222 l 172 -222 l 172 -350 l 496 -350 z "},"ŧ":{"ha":861,"x_min":0,"x_max":0,"o":"m 179 422 l 179 286 l 349 286 l 349 0 l 513 0 l 513 286 l 682 286 l 682 422 l 513 422 l 513 539 l 790 539 l 790 675 l 513 675 l 513 907 l 349 907 l 349 675 l 71 675 l 71 539 l 349 539 l 349 422 z "},"ť":{"ha":861,"x_min":0,"x_max":0,"o":"m 597 765 l 744 765 l 864 1119 l 715 1119 z m 71 539 l 349 539 l 349 0 l 513 0 l 513 539 l 790 539 l 790 675 l 513 675 l 513 907 l 349 907 l 349 675 l 71 675 z "},"ţ":{"ha":861,"x_min":0,"x_max":0,"o":"m 71 539 l 349 539 l 349 0 l 513 0 l 513 539 l 790 539 l 790 675 l 513 675 l 513 907 l 349 907 l 349 675 l 71 675 z m 168 -351 l 340 -351 l 522 -100 l 350 -100 z "},"ț":{"ha":861,"x_min":0,"x_max":0,"o":"m 71 539 l 349 539 l 349 0 l 513 0 l 513 539 l 790 539 l 790 675 l 513 675 l 513 907 l 349 907 l 349 675 l 71 675 z m 501 -72 l 363 -72 l 363 -222 l 178 -222 l 178 -350 l 501 -350 z "},"þ":{"ha":861,"x_min":0,"x_max":0,"o":"m 264 1119 l 100 1119 l 100 -351 l 264 -351 l 264 89 b 481 -17 304 26 388 -17 b 813 338 668 -17 813 139 b 481 692 813 536 668 692 b 264 586 388 692 304 649 z m 651 338 b 451 129 651 217 565 129 b 257 338 340 129 257 217 b 451 546 257 458 340 546 b 651 338 565 546 651 458 z "},"ú":{"ha":861,"x_min":0,"x_max":0,"o":"m 335 796 l 506 796 l 699 1061 l 526 1061 z m 431 129 b 282 293 338 129 282 189 l 282 675 l 118 675 l 118 282 b 431 -17 118 103 249 -17 b 743 282 613 -17 743 103 l 743 675 l 579 675 l 579 293 b 431 129 579 189 524 129 z "},"ŭ":{"ha":861,"x_min":0,"x_max":0,"o":"m 431 821 b 663 1063 553 821 661 910 l 528 1063 b 431 943 525 989 489 943 b 333 1063 371 943 336 989 l 199 1063 b 431 821 200 910 308 821 z m 431 129 b 282 293 338 129 282 189 l 282 675 l 118 675 l 118 282 b 431 -17 118 103 249 -17 b 743 282 613 -17 743 103 l 743 675 l 579 675 l 579 293 b 431 129 579 189 524 129 z "},"û":{"ha":861,"x_min":0,"x_max":0,"o":"m 431 1108 l 163 793 l 315 793 l 431 928 l 546 793 l 699 793 z m 431 129 b 282 293 338 129 282 189 l 282 675 l 118 675 l 118 282 b 431 -17 118 103 249 -17 b 743 282 613 -17 743 103 l 743 675 l 579 675 l 579 293 b 431 129 579 189 524 129 z "},"ü":{"ha":861,"x_min":0,"x_max":0,"o":"m 274 853 b 386 964 335 853 386 903 b 274 1076 386 1026 335 1076 b 161 964 213 1076 161 1026 b 274 853 161 903 213 853 z m 588 853 b 700 964 649 853 700 903 b 588 1076 700 1026 649 1076 b 475 964 526 1076 475 1026 b 588 853 475 903 526 853 z m 431 129 b 282 293 338 129 282 189 l 282 675 l 118 675 l 118 282 b 431 -17 118 103 249 -17 b 743 282 613 -17 743 103 l 743 675 l 579 675 l 579 293 b 431 129 579 189 524 129 z "},"ù":{"ha":861,"x_min":0,"x_max":0,"o":"m 524 796 l 332 1061 l 160 1061 l 353 796 z m 431 129 b 282 293 338 129 282 189 l 282 675 l 118 675 l 118 282 b 431 -17 118 103 249 -17 b 743 282 613 -17 743 103 l 743 675 l 579 675 l 579 293 b 431 129 579 189 524 129 z "},"ű":{"ha":861,"x_min":0,"x_max":0,"o":"m 213 796 l 372 796 l 558 1061 l 399 1061 z m 489 796 l 649 796 l 835 1061 l 675 1061 z m 431 129 b 282 293 338 129 282 189 l 282 675 l 118 675 l 118 282 b 431 -17 118 103 249 -17 b 743 282 613 -17 743 103 l 743 675 l 579 675 l 579 293 b 431 129 579 189 524 129 z "},"ū":{"ha":861,"x_min":0,"x_max":0,"o":"m 207 860 l 654 860 l 654 993 l 207 993 z m 431 129 b 282 293 338 129 282 189 l 282 675 l 118 675 l 118 282 b 431 -17 118 103 249 -17 b 743 282 613 -17 743 103 l 743 675 l 579 675 l 579 293 b 431 129 579 189 524 129 z "},"ų":{"ha":861,"x_min":0,"x_max":0,"o":"m 431 129 b 282 293 338 129 282 189 l 282 675 l 118 675 l 118 282 b 393 -15 118 115 231 0 l 339 -75 b 281 -212 303 -112 281 -162 b 449 -364 281 -306 353 -364 b 632 -189 543 -364 617 -297 l 513 -189 b 456 -244 504 -226 483 -244 b 404 -193 426 -244 404 -228 b 443 -112 404 -167 415 -144 l 544 1 b 743 282 665 40 743 143 l 743 675 l 579 675 l 579 293 b 431 129 579 189 524 129 z "},"ů":{"ha":861,"x_min":0,"x_max":0,"o":"m 219 988 b 431 776 219 868 313 776 b 642 988 549 776 642 868 b 431 1197 642 1107 549 1197 b 219 988 313 1197 219 1107 z m 431 900 b 343 988 382 900 343 938 b 431 1075 343 1036 382 1075 b 518 988 479 1075 518 1036 b 431 900 518 938 479 900 z m 431 129 b 282 293 338 129 282 189 l 282 675 l 118 675 l 118 282 b 431 -17 118 103 249 -17 b 743 282 613 -17 743 103 l 743 675 l 579 675 l 579 293 b 431 129 579 189 524 129 z "},"ũ":{"ha":861,"x_min":0,"x_max":0,"o":"m 582 1049 b 519 957 582 989 556 957 b 325 1047 460 957 422 1047 b 156 819 226 1047 156 956 l 279 819 b 342 911 279 879 306 911 b 536 821 400 911 439 821 b 706 1049 635 821 706 913 z m 431 129 b 282 293 338 129 282 189 l 282 675 l 118 675 l 118 282 b 431 -17 118 103 249 -17 b 743 282 613 -17 743 103 l 743 675 l 579 675 l 579 293 b 431 129 579 189 524 129 z "},"ẃ":{"ha":861,"x_min":0,"x_max":0,"o":"m 335 796 l 506 796 l 699 1061 l 526 1061 z m 432 700 l 282 315 l 157 675 l 0 675 l 257 -39 l 431 374 l 604 -39 l 861 675 l 706 675 l 581 315 z "},"ŵ":{"ha":861,"x_min":0,"x_max":0,"o":"m 431 1108 l 163 793 l 315 793 l 431 928 l 546 793 l 699 793 z m 432 700 l 282 315 l 157 675 l 0 675 l 257 -39 l 431 374 l 604 -39 l 861 675 l 706 675 l 581 315 z "},"ẁ":{"ha":861,"x_min":0,"x_max":0,"o":"m 524 796 l 332 1061 l 160 1061 l 353 796 z m 432 700 l 282 315 l 157 675 l 0 675 l 257 -39 l 431 374 l 604 -39 l 861 675 l 706 675 l 581 315 z "},"ẅ":{"ha":861,"x_min":0,"x_max":0,"o":"m 274 853 b 386 964 335 853 386 903 b 274 1076 386 1026 335 1076 b 161 964 213 1076 161 1026 b 274 853 161 903 213 853 z m 588 853 b 700 964 649 853 700 903 b 588 1076 700 1026 649 1076 b 475 964 526 1076 475 1026 b 588 853 475 903 526 853 z m 432 700 l 282 315 l 157 675 l 0 675 l 257 -39 l 431 374 l 604 -39 l 861 675 l 706 675 l 581 315 z "},"ý":{"ha":861,"x_min":0,"x_max":0,"o":"m 336 796 l 507 796 l 700 1061 l 528 1061 z m 108 -351 l 281 -351 l 818 675 l 643 675 l 442 289 l 231 675 l 47 675 l 354 121 z "},"ŷ":{"ha":861,"x_min":0,"x_max":0,"o":"m 432 1108 l 164 793 l 317 793 l 432 928 l 547 793 l 700 793 z m 108 -351 l 281 -351 l 818 675 l 643 675 l 442 289 l 231 675 l 47 675 l 354 121 z "},"ÿ":{"ha":861,"x_min":0,"x_max":0,"o":"m 275 853 b 388 964 336 853 388 903 b 275 1076 388 1026 336 1076 b 163 964 214 1076 163 1026 b 275 853 163 903 214 853 z m 589 853 b 701 964 650 853 701 903 b 589 1076 701 1026 650 1076 b 476 964 528 1076 476 1026 b 589 853 476 903 528 853 z m 108 -351 l 281 -351 l 818 675 l 643 675 l 442 289 l 231 675 l 47 675 l 354 121 z "},"ỳ":{"ha":861,"x_min":0,"x_max":0,"o":"m 525 796 l 333 1061 l 161 1061 l 354 796 z m 108 -351 l 281 -351 l 818 675 l 643 675 l 442 289 l 231 675 l 47 675 l 354 121 z "},"ź":{"ha":861,"x_min":0,"x_max":0,"o":"m 335 796 l 506 796 l 699 1061 l 526 1061 z m 503 539 l 81 0 l 775 0 l 775 136 l 357 136 l 778 675 l 114 675 l 114 539 z "},"ž":{"ha":861,"x_min":0,"x_max":0,"o":"m 431 765 l 699 1081 l 546 1081 l 431 946 l 315 1081 l 163 1081 z m 503 539 l 81 0 l 775 0 l 775 136 l 357 136 l 778 675 l 114 675 l 114 539 z "},"ż":{"ha":861,"x_min":0,"x_max":0,"o":"m 431 847 b 546 963 493 847 546 899 b 431 1076 546 1025 493 1076 b 315 963 368 1076 315 1025 b 431 847 315 899 368 847 z m 503 539 l 81 0 l 775 0 l 775 136 l 357 136 l 778 675 l 114 675 l 114 539 z "},"º":{"ha":861,"x_min":0,"x_max":0,"o":"m 163 796 b 431 533 163 646 285 533 b 699 796 578 533 699 646 b 431 1060 699 947 578 1060 b 163 796 285 1060 163 947 z m 301 796 b 431 936 301 878 358 936 b 560 796 504 936 560 878 b 431 657 560 714 504 657 b 301 796 358 657 301 714 z m 182 265 l 679 265 l 679 389 l 182 389 z "},"ª":{"ha":861,"x_min":0,"x_max":0,"o":"m 542 1047 l 542 989 b 386 1060 514 1029 453 1060 b 146 796 250 1060 146 944 b 386 533 146 647 250 533 b 542 603 453 533 514 564 l 542 544 l 683 544 l 683 1047 z m 285 796 b 417 935 285 878 342 935 b 546 796 492 935 546 878 b 417 657 546 714 492 657 b 285 796 342 657 285 714 z m 161 265 l 683 265 l 683 389 l 161 389 z "},"&":{"ha":861,"x_min":0,"x_max":0,"o":"m 860 131 b 681 304 763 131 681 201 b 860 476 681 406 763 476 l 860 624 b 599 488 753 624 656 568 b 499 568 574 525 536 554 b 619 788 568 610 619 688 b 339 1064 619 949 494 1064 b 58 788 185 1064 58 949 b 181 568 58 688 111 610 b 4 301 89 529 4 432 b 339 -17 4 118 156 -17 b 601 113 446 -17 542 33 b 860 -17 660 33 757 -17 z m 339 643 b 201 783 264 643 201 704 b 339 922 201 861 264 922 b 478 783 414 922 478 861 b 339 643 478 704 414 643 z m 339 131 b 163 311 242 131 163 207 b 339 492 163 417 242 492 b 517 311 436 492 517 417 b 339 131 517 207 436 131 z "},"`":{"ha":861,"x_min":0,"x_max":0,"o":"m 613 796 l 421 1061 l 249 1061 l 442 796 z "},"´":{"ha":861,"x_min":0,"x_max":0,"o":"m 250 796 l 421 796 l 614 1061 l 442 1061 z "},"ˆ":{"ha":861,"x_min":0,"x_max":0,"o":"m 431 1108 l 163 793 l 315 793 l 431 928 l 546 793 l 699 793 z "},"˜":{"ha":861,"x_min":0,"x_max":0,"o":"m 582 1049 b 519 957 582 989 556 957 b 325 1047 460 957 422 1047 b 156 819 226 1047 156 956 l 279 819 b 342 911 279 879 306 911 b 536 821 400 911 439 821 b 706 1049 635 821 706 913 z "},"¯":{"ha":861,"x_min":0,"x_max":0,"o":"m 207 860 l 654 860 l 654 993 l 207 993 z "},"˘":{"ha":861,"x_min":0,"x_max":0,"o":"m 431 821 b 663 1063 553 821 661 910 l 528 1063 b 431 943 525 989 489 943 b 333 1063 371 943 336 989 l 199 1063 b 431 821 200 910 308 821 z "},"˙":{"ha":861,"x_min":0,"x_max":0,"o":"m 431 847 b 546 963 493 847 546 899 b 431 1076 546 1025 493 1076 b 315 963 368 1076 315 1025 b 431 847 315 899 368 847 z "},"¨":{"ha":861,"x_min":0,"x_max":0,"o":"m 274 853 b 386 964 335 853 386 903 b 274 1076 386 1026 335 1076 b 161 964 213 1076 161 1026 b 274 853 161 903 213 853 z m 588 853 b 700 964 649 853 700 903 b 588 1076 700 1026 649 1076 b 475 964 526 1076 475 1026 b 588 853 475 903 526 853 z "},"˚":{"ha":861,"x_min":0,"x_max":0,"o":"m 219 988 b 431 776 219 868 313 776 b 642 988 549 776 642 868 b 431 1197 642 1107 549 1197 b 219 988 313 1197 219 1107 z m 431 900 b 343 988 382 900 343 938 b 431 1075 343 1036 382 1075 b 518 988 479 1075 518 1036 b 431 900 518 938 479 900 z "},"˝":{"ha":861,"x_min":0,"x_max":0,"o":"m 119 796 l 279 796 l 465 1061 l 306 1061 z m 396 796 l 556 796 l 742 1061 l 582 1061 z "},"ˇ":{"ha":861,"x_min":0,"x_max":0,"o":"m 431 765 l 699 1081 l 546 1081 l 431 946 l 315 1081 l 163 1081 z "},"":{"ha":861,"x_min":0,"x_max":0,"o":"m 592 -72 l 453 -72 l 453 -222 l 268 -222 l 268 -350 l 592 -350 z "},"¸":{"ha":861,"x_min":0,"x_max":0,"o":"m 263 -351 l 435 -351 l 617 -100 l 444 -100 z "},"˛":{"ha":861,"x_min":0,"x_max":0,"o":"m 390 11 l 318 -68 b 254 -212 275 -115 254 -161 b 422 -364 254 -306 326 -364 b 606 -189 517 -364 590 -297 l 486 -189 b 429 -244 478 -226 457 -244 b 378 -193 400 -244 378 -228 b 417 -112 378 -167 389 -144 l 518 0 z "},".":{"ha":861,"x_min":0,"x_max":0,"o":"m 303 117 b 431 -10 303 49 363 -10 b 558 117 499 -10 558 49 b 431 243 558 186 499 243 b 303 117 363 243 303 186 z "},",":{"ha":861,"x_min":0,"x_max":0,"o":"m 147 -283 l 326 -283 l 603 185 l 424 185 z "},":":{"ha":861,"x_min":0,"x_max":0,"o":"m 303 572 b 431 446 303 504 363 446 b 558 572 499 446 558 504 b 431 699 558 642 499 699 b 303 572 363 699 303 642 z m 303 117 b 431 -10 303 49 363 -10 b 558 117 499 -10 558 49 b 431 243 558 186 499 243 b 303 117 363 243 303 186 z "},";":{"ha":861,"x_min":0,"x_max":0,"o":"m 303 572 b 431 446 303 504 363 446 b 558 572 499 446 558 504 b 431 699 558 642 499 699 b 303 572 363 699 303 642 z m 147 -283 l 326 -283 l 603 185 l 424 185 z "},"…":{"ha":861,"x_min":0,"x_max":0,"o":"m 36 103 b 150 -10 36 42 89 -10 b 264 103 211 -10 264 42 b 150 215 264 164 211 215 b 36 103 89 215 36 164 z m 317 103 b 431 -10 317 42 369 -10 b 544 103 492 -10 544 42 b 431 215 544 164 492 215 b 317 103 369 215 317 164 z m 597 103 b 711 -10 597 42 650 -10 b 825 103 772 -10 825 42 b 711 215 825 164 772 215 b 597 103 650 215 597 164 z "},"!":{"ha":861,"x_min":0,"x_max":0,"o":"m 344 324 l 517 324 l 517 1047 l 344 1047 z m 303 117 b 431 -10 303 49 363 -10 b 558 117 499 -10 558 49 b 431 243 558 186 499 243 b 303 117 363 243 303 186 z "},"¡":{"ha":861,"x_min":0,"x_max":0,"o":"m 558 588 b 431 714 558 656 499 714 b 303 588 363 714 303 656 b 431 461 303 518 363 461 b 558 588 499 461 558 518 z m 517 381 l 344 381 l 344 -343 l 517 -343 z "},"?":{"ha":861,"x_min":0,"x_max":0,"o":"m 353 499 b 706 826 353 642 706 560 b 439 1064 706 964 594 1064 b 156 783 278 1064 151 949 l 318 783 b 438 922 311 872 365 922 b 542 825 503 922 542 881 b 193 497 542 669 193 751 b 432 282 193 369 300 282 b 672 507 561 282 669 376 l 519 507 b 433 419 514 450 486 419 b 353 499 390 419 353 447 z m 306 107 b 424 -10 306 44 361 -10 b 542 107 486 -10 542 44 b 424 225 542 171 486 225 b 306 107 361 225 306 171 z "},"¿":{"ha":861,"x_min":0,"x_max":0,"o":"m 556 601 b 438 718 556 664 500 718 b 319 601 375 718 319 664 b 438 483 319 538 375 483 b 556 601 500 483 556 538 z m 508 210 b 156 -118 508 67 156 149 b 422 -356 156 -256 267 -356 b 706 -75 583 -356 710 -240 l 543 -75 b 424 -214 550 -164 496 -214 b 319 -117 358 -214 319 -172 b 668 211 319 39 668 -43 b 429 426 668 339 561 426 b 189 201 300 426 192 332 l 342 201 b 428 289 347 258 375 289 b 508 210 471 289 508 261 z "},"‘":{"ha":861,"x_min":0,"x_max":0,"o":"m 203 579 l 382 579 l 658 1047 l 479 1047 z "},"’":{"ha":861,"x_min":0,"x_max":0,"o":"m 203 579 l 382 579 l 658 1047 l 479 1047 z "},"“":{"ha":861,"x_min":0,"x_max":0,"o":"m 493 1047 l 329 1047 l 51 578 l 217 578 z m 808 1047 l 643 1047 l 367 578 l 532 578 z "},"”":{"ha":861,"x_min":0,"x_max":0,"o":"m 493 1047 l 329 1047 l 51 578 l 217 578 z m 808 1047 l 643 1047 l 367 578 l 532 578 z "},"‚":{"ha":861,"x_min":0,"x_max":0,"o":"m 185 -194 l 364 -194 l 640 274 l 461 274 z "},"„":{"ha":861,"x_min":0,"x_max":0,"o":"m 488 274 l 324 274 l 46 -196 l 211 -196 z m 803 274 l 638 274 l 361 -196 l 526 -196 z "},"‹":{"ha":861,"x_min":0,"x_max":0,"o":"m 600 203 l 442 361 l 600 519 l 510 610 l 261 361 l 510 113 z "},"›":{"ha":861,"x_min":0,"x_max":0,"o":"m 261 203 l 351 113 l 600 361 l 351 610 l 261 519 l 419 361 z "},"«":{"ha":861,"x_min":0,"x_max":0,"o":"m 456 203 l 297 361 l 456 519 l 365 610 l 117 361 l 365 113 z m 744 203 l 586 361 l 744 519 l 654 610 l 406 361 l 654 113 z "},"»":{"ha":861,"x_min":0,"x_max":0,"o":"m 406 203 l 496 113 l 744 361 l 496 610 l 406 519 l 564 361 z m 117 203 l 207 113 l 456 361 l 207 610 l 117 519 l 275 361 z "},"/":{"ha":861,"x_min":0,"x_max":0,"o":"m 40 -208 l 207 -208 l 821 1119 l 654 1119 z "},"\\":{"ha":861,"x_min":0,"x_max":0,"o":"m 821 -208 l 207 1119 l 40 1119 l 654 -208 z "},"|":{"ha":861,"x_min":0,"x_max":0,"o":"m 351 -208 l 508 -208 l 508 1133 l 351 1133 z "},"·":{"ha":861,"x_min":0,"x_max":0,"o":"m 303 361 b 431 235 303 293 363 235 b 558 361 499 235 558 293 b 431 488 558 431 499 488 b 303 361 363 488 303 431 z "},"•":{"ha":861,"x_min":0,"x_max":0,"o":"m 431 624 b 169 361 288 624 169 506 b 431 100 169 217 288 100 b 692 361 574 100 692 217 b 431 624 692 506 574 624 z "},"-":{"ha":861,"x_min":0,"x_max":0,"o":"m 247 442 l 247 281 l 614 281 l 614 442 z "},"–":{"ha":861,"x_min":0,"x_max":0,"o":"m 140 439 l 140 289 l 721 289 l 721 439 z "},"—":{"ha":861,"x_min":0,"x_max":0,"o":"m 0 439 l 0 289 l 861 289 l 861 439 z "},"(":{"ha":861,"x_min":0,"x_max":0,"o":"m 171 447 b 717 -225 171 108 400 -142 l 717 -47 b 333 447 517 3 333 176 b 717 942 333 718 517 892 l 717 1119 b 171 447 400 1036 171 786 z "},")":{"ha":861,"x_min":0,"x_max":0,"o":"m 690 447 b 144 1119 690 786 461 1036 l 144 942 b 528 447 344 892 528 718 b 144 -47 528 176 344 3 l 144 -225 b 690 447 461 -142 690 108 z "},"[":{"ha":861,"x_min":0,"x_max":0,"o":"m 371 989 l 732 989 l 732 1119 l 213 1119 l 213 -208 l 732 -208 l 732 -78 l 371 -78 z "},"]":{"ha":861,"x_min":0,"x_max":0,"o":"m 490 989 l 490 -78 l 129 -78 l 129 -208 l 649 -208 l 649 1119 l 129 1119 l 129 989 z "},"{":{"ha":861,"x_min":0,"x_max":0,"o":"m 460 893 b 538 989 460 961 485 989 l 732 989 l 732 1119 l 497 1119 b 306 919 372 1119 306 1053 l 306 649 b 196 526 306 557 256 526 l 71 526 l 71 385 l 196 385 b 306 263 256 385 306 354 l 306 -8 b 497 -208 306 -142 372 -208 l 732 -208 l 732 -78 l 538 -78 b 460 18 485 -78 460 -50 l 460 281 b 319 456 460 397 390 450 b 460 631 390 461 460 514 z "},"}":{"ha":861,"x_min":0,"x_max":0,"o":"m 401 893 l 401 631 b 542 456 401 514 471 461 b 401 281 471 450 401 397 l 401 18 b 324 -78 401 -50 376 -78 l 129 -78 l 129 -208 l 364 -208 b 556 -8 489 -208 556 -142 l 556 263 b 665 385 556 354 606 385 l 790 385 l 790 526 l 665 526 b 556 649 606 526 556 557 l 556 919 b 364 1119 556 1053 489 1119 l 129 1119 l 129 989 l 324 989 b 401 893 376 989 401 961 z "},"*":{"ha":861,"x_min":0,"x_max":0,"o":"m 378 414 l 485 414 l 485 638 l 682 526 l 736 618 l 539 731 l 736 844 l 682 938 l 485 825 l 485 1047 l 378 1047 l 378 825 l 181 938 l 125 844 l 324 731 l 125 618 l 181 526 l 378 638 z "},"†":{"ha":861,"x_min":0,"x_max":0,"o":"m 367 413 l 496 413 l 496 738 l 676 738 l 676 867 l 496 867 l 496 1047 l 367 1047 l 367 867 l 186 867 l 186 738 l 367 738 z "},"‡":{"ha":861,"x_min":0,"x_max":0,"o":"m 367 413 l 496 413 l 496 543 l 676 543 l 676 667 l 496 667 l 496 793 l 676 793 l 676 918 l 496 918 l 496 1047 l 367 1047 l 367 918 l 186 918 l 186 793 l 367 793 l 367 667 l 186 667 l 186 543 l 367 543 z "},"§":{"ha":861,"x_min":0,"x_max":0,"o":"m 142 343 b 215 153 142 258 171 199 b 394 39 265 100 335 68 b 554 -111 483 -1 554 -37 b 428 -233 554 -187 500 -233 b 292 -133 364 -233 315 -194 l 161 -207 b 424 -378 199 -304 301 -378 b 706 -114 585 -378 706 -268 b 561 107 706 -4 642 61 b 718 343 656 149 718 238 b 639 539 718 431 686 492 b 465 647 590 588 525 618 b 306 797 381 688 306 722 b 433 919 306 874 360 919 b 569 819 496 919 544 881 l 699 893 b 436 1064 661 990 558 1064 b 154 800 275 1064 154 954 b 299 579 154 690 218 625 b 142 343 204 538 142 449 z m 429 206 b 332 244 392 206 356 221 b 292 343 307 269 292 303 b 431 481 292 422 354 481 b 529 442 469 481 504 465 b 568 343 553 417 568 383 b 429 206 568 264 507 206 z "},"¶":{"ha":861,"x_min":0,"x_max":0,"o":"m 542 -360 l 674 -360 l 674 913 l 831 913 l 831 1047 l 542 1047 z m 313 -360 l 444 -360 l 444 1047 l 313 1047 b 21 790 182 1047 21 972 b 313 529 21 607 182 529 z "},"^":{"ha":861,"x_min":0,"x_max":0,"o":"m 431 1067 l 79 608 l 251 608 l 431 840 l 610 608 l 782 608 z "},"~":{"ha":861,"x_min":0,"x_max":0,"o":"m 582 515 b 519 425 582 456 556 425 b 325 514 460 425 422 514 b 156 288 226 514 156 424 l 279 288 b 342 379 279 347 306 379 b 536 289 400 379 439 289 b 706 515 635 289 706 379 z "},"_":{"ha":861,"x_min":0,"x_max":0,"o":"m 149 -110 l 149 -261 l 713 -261 l 713 -110 z "},"'":{"ha":861,"x_min":0,"x_max":0,"o":"m 357 482 l 518 642 l 518 1047 l 357 1047 z "},"\"":{"ha":861,"x_min":0,"x_max":0,"o":"m 185 482 l 346 642 l 346 1047 l 185 1047 z m 515 482 l 676 642 l 676 1047 l 515 1047 z "},"@":{"ha":861,"x_min":0,"x_max":0,"o":"m 60 -351 l 717 -351 l 796 -221 l 203 -221 l 203 917 l 658 917 l 658 511 b 504 585 629 554 572 585 b 264 332 368 585 264 474 b 504 76 264 188 368 76 b 658 150 572 76 629 108 l 658 88 l 800 88 l 800 1047 l 60 1047 z m 407 332 b 535 463 407 407 463 463 b 661 332 607 463 661 407 b 535 199 661 256 607 199 b 407 332 463 199 407 256 z "},"©":{"ha":861,"x_min":0,"x_max":0,"o":"m 840 525 b 431 1064 840 839 654 1064 b 21 525 207 1064 21 839 b 431 -15 21 213 207 -15 b 840 525 654 -15 840 213 z m 757 525 b 431 64 757 258 610 64 b 104 525 251 64 104 258 b 431 985 104 793 251 985 b 757 525 610 985 757 793 z m 329 524 b 481 732 329 643 394 732 b 583 678 518 732 556 713 l 583 829 b 453 878 543 861 501 878 b 194 524 310 878 194 719 b 453 172 194 331 310 172 b 583 219 501 172 543 189 l 583 371 b 481 318 556 336 518 318 b 329 524 394 318 329 406 z "},"®":{"ha":861,"x_min":0,"x_max":0,"o":"m 432 1064 b 100 732 250 1064 100 914 b 432 401 100 550 250 401 b 763 732 614 401 763 550 b 432 1064 763 914 614 1064 z m 432 469 b 168 732 288 469 168 588 b 432 996 168 876 288 996 b 694 732 576 996 694 876 b 432 469 694 588 576 469 z m 388 683 l 407 683 l 471 572 l 565 572 l 489 696 b 558 793 526 708 558 742 b 436 903 558 861 510 903 l 306 903 l 306 572 l 388 572 z m 388 831 l 429 831 b 478 789 460 831 478 814 b 429 750 478 767 460 750 l 388 750 z "},"™":{"ha":861,"x_min":0,"x_max":0,"o":"m 608 557 l 701 783 l 749 568 l 849 568 l 739 1072 l 610 768 l 481 1072 l 369 568 l 469 568 l 515 783 z m 18 950 l 149 950 l 149 568 l 260 568 l 260 950 l 389 950 l 389 1047 l 18 1047 z "},"#":{"ha":861,"x_min":0,"x_max":0,"o":"m 476 0 l 563 282 l 708 282 l 750 404 l 600 404 l 675 649 l 800 649 l 843 771 l 713 771 l 797 1047 l 663 1047 l 578 771 l 438 771 l 522 1047 l 385 1047 l 300 771 l 154 771 l 113 649 l 263 649 l 188 404 l 63 404 l 19 282 l 150 282 l 64 0 l 199 0 l 286 282 l 426 282 l 339 0 z m 324 404 l 399 649 l 539 649 l 464 404 z "},"°":{"ha":861,"x_min":0,"x_max":0,"o":"m 215 849 b 431 633 215 725 310 633 b 646 849 551 633 646 725 b 431 1064 646 972 551 1064 b 215 849 310 1064 215 972 z m 342 849 b 431 938 342 900 381 938 b 519 849 481 938 519 900 b 431 760 519 797 481 760 b 342 849 381 760 342 797 z "},"ƒ":{"ha":861,"x_min":0,"x_max":0,"o":"m 182 419 l 340 419 l 254 103 b 100 -36 232 18 186 -36 b 15 -18 67 -36 36 -29 l 15 -165 b 115 -182 42 -176 75 -182 b 414 85 286 -182 374 -67 l 506 419 l 703 419 l 703 558 l 543 558 l 604 779 b 758 918 628 863 672 918 b 843 899 793 918 824 910 l 843 1046 b 744 1064 818 1058 783 1064 b 444 797 572 1064 486 949 l 379 558 l 182 558 z "},"€":{"ha":861,"x_min":0,"x_max":0,"o":"m 29 343 l 144 343 b 583 -17 208 133 379 -17 b 811 49 667 -17 744 6 l 811 246 b 592 144 756 183 679 144 b 317 343 469 144 367 221 l 526 343 l 574 471 l 285 471 b 282 524 283 488 282 506 b 286 586 282 544 283 567 l 611 586 l 657 714 l 321 714 b 592 903 372 829 472 903 b 811 801 679 903 756 864 l 811 999 b 583 1064 744 1042 667 1064 b 147 714 382 1064 213 918 l 29 714 l 29 586 l 121 586 b 118 524 119 565 118 544 b 121 471 118 506 119 488 l 29 471 z "},"$":{"ha":861,"x_min":0,"x_max":0,"o":"m 804 310 b 510 604 804 504 653 561 l 510 917 b 644 800 569 899 617 858 l 765 890 b 510 1060 714 979 628 1043 l 510 1188 l 382 1188 l 382 1058 b 111 765 219 1033 111 918 b 382 489 111 586 247 531 l 382 131 b 164 315 279 147 203 213 l 32 242 b 382 -14 79 96 215 0 l 382 -156 l 510 -156 l 510 -10 b 804 310 679 22 804 151 z m 260 776 b 382 921 260 853 310 904 l 382 646 b 260 776 311 672 260 708 z m 649 299 b 510 133 649 217 592 156 l 510 449 b 649 299 589 418 649 379 z "},"¢":{"ha":861,"x_min":0,"x_max":0,"o":"m 425 -156 l 554 -156 l 554 -15 b 706 26 611 -11 660 6 l 706 193 b 554 128 667 158 615 133 l 554 547 b 703 483 615 542 665 517 l 703 650 b 554 690 658 671 611 686 l 554 843 l 425 843 l 425 679 b 143 338 261 640 143 506 b 425 -4 143 169 261 35 z m 290 338 b 425 532 290 432 343 501 l 425 143 b 290 338 343 174 290 243 z "},"£":{"ha":861,"x_min":0,"x_max":0,"o":"m 38 424 l 194 424 b 244 253 218 374 238 319 b 25 67 139 243 56 164 l 147 -10 b 276 103 171 63 215 103 b 594 -15 379 103 451 -15 b 836 172 710 -15 803 68 l 714 249 b 585 136 689 176 646 136 b 397 219 519 136 465 185 b 360 424 394 304 379 369 l 578 424 l 578 556 l 301 556 b 258 726 278 608 258 660 b 449 915 258 831 335 915 b 647 732 557 915 624 853 l 804 779 b 450 1064 769 957 643 1064 b 93 725 240 1064 93 906 b 131 556 93 660 110 606 l 38 556 z "},"¥":{"ha":861,"x_min":0,"x_max":0,"o":"m 63 314 l 346 314 l 346 0 l 515 0 l 515 314 l 797 314 l 797 450 l 517 450 l 583 569 l 797 569 l 797 704 l 657 704 l 847 1047 l 669 1047 l 432 607 l 196 1047 l 13 1047 l 203 704 l 63 704 l 63 569 l 278 569 l 344 450 l 63 450 z "},"฿":{"ha":861,"x_min":0,"x_max":0,"o":"m 599 553 b 753 774 683 582 753 658 b 496 1042 753 913 654 1017 l 496 1188 l 371 1188 l 371 1047 l 121 1047 l 121 0 l 371 0 l 371 -156 l 496 -156 l 496 1 b 804 296 692 18 804 136 b 599 553 804 429 721 521 z m 275 911 l 371 911 l 371 594 l 275 594 z m 604 751 b 496 604 604 675 561 624 l 496 901 b 604 751 561 881 604 828 z m 275 471 l 371 471 l 371 136 l 275 136 z m 647 304 b 496 139 647 215 592 153 l 496 468 b 647 304 592 454 647 393 z "},"₫":{"ha":861,"x_min":0,"x_max":0,"o":"m 382 832 l 563 832 l 563 639 b 365 736 528 697 453 736 b 61 417 190 736 61 597 b 365 97 61 235 190 97 b 563 206 453 97 524 143 l 563 114 l 718 114 l 718 832 l 815 832 l 815 964 l 718 964 l 718 1047 l 563 1047 l 563 964 l 382 964 z m 215 417 b 394 603 215 524 290 603 b 569 417 497 603 569 524 b 394 231 569 310 497 231 b 215 417 290 231 215 310 z m 69 -137 l 718 -137 l 718 0 l 69 0 z "},"₣":{"ha":861,"x_min":0,"x_max":0,"o":"m 178 0 l 350 0 l 350 214 l 575 214 l 575 351 l 350 351 l 350 468 l 775 468 l 775 617 l 350 617 l 350 899 l 781 899 l 781 1047 l 178 1047 l 178 351 l 81 351 l 81 214 l 178 214 z "},"₦":{"ha":861,"x_min":0,"x_max":0,"o":"m 36 333 l 129 333 l 129 0 l 288 0 l 288 619 l 732 -39 l 732 333 l 825 333 l 825 468 l 732 468 l 732 585 l 825 585 l 825 721 l 732 721 l 732 1047 l 574 1047 l 574 426 l 129 1086 l 129 721 l 36 721 l 36 585 l 129 585 l 129 468 l 36 468 z "},"₧":{"ha":861,"x_min":0,"x_max":0,"o":"m 297 339 l 396 339 b 751 626 594 339 725 456 l 850 626 l 850 761 l 751 761 b 396 1047 725 932 594 1047 l 135 1047 l 135 761 l 31 761 l 31 626 l 135 626 l 135 0 l 297 0 z m 297 913 l 397 913 b 594 761 499 913 572 861 l 297 761 z m 297 475 l 297 626 l 594 626 b 397 475 572 526 499 475 z "},"₱":{"ha":861,"x_min":0,"x_max":0,"o":"m 303 331 l 363 331 b 703 490 519 331 639 388 l 850 490 l 850 626 l 751 626 b 756 689 754 646 756 667 b 753 743 756 707 754 726 l 850 743 l 850 878 l 708 878 b 363 1047 646 986 525 1047 l 133 1047 l 133 878 l 31 878 l 31 743 l 133 743 l 133 626 l 31 626 l 31 490 l 133 490 l 133 0 l 303 0 z m 303 901 l 361 901 b 593 689 501 901 593 835 b 361 476 593 542 501 476 l 303 476 z "},"₽":{"ha":861,"x_min":0,"x_max":0,"o":"m 54 169 l 157 169 l 157 0 l 326 0 l 326 169 l 539 169 l 539 300 l 326 300 l 326 417 l 453 417 b 818 732 665 417 818 533 b 453 1047 818 931 664 1047 l 157 1047 l 157 554 l 54 554 l 54 417 l 157 417 l 157 300 l 54 300 z m 447 906 b 646 732 558 906 646 851 b 447 554 646 614 558 554 l 326 554 l 326 906 z "},"₹":{"ha":861,"x_min":0,"x_max":0,"o":"m 54 549 l 54 421 l 218 421 l 572 0 l 778 0 l 408 431 b 653 665 539 458 632 538 l 806 665 l 806 797 l 650 797 b 581 914 638 844 614 883 l 806 914 l 806 1047 l 54 1047 l 54 914 l 297 914 b 482 797 386 914 456 874 l 54 797 l 54 665 l 485 665 b 297 549 461 585 389 549 z "},"₺":{"ha":861,"x_min":0,"x_max":0,"o":"m 154 0 l 397 0 b 814 422 685 0 814 146 l 642 422 b 389 149 642 225 558 149 l 321 149 l 321 344 l 472 453 l 472 599 l 321 490 l 321 614 l 472 722 l 472 869 l 321 761 l 321 1047 l 154 1047 l 154 654 l 58 586 l 58 439 l 154 508 l 154 383 l 58 315 l 58 169 l 154 238 z "},"₩":{"ha":861,"x_min":0,"x_max":0,"o":"m 25 333 l 178 333 l 254 -37 l 431 619 l 607 -37 l 683 333 l 836 333 l 836 468 l 711 468 l 735 585 l 836 585 l 836 721 l 764 721 l 831 1047 l 683 1047 l 571 471 l 432 990 l 293 471 l 181 1047 l 31 1047 l 97 721 l 25 721 l 25 585 l 126 585 l 150 468 l 25 468 z "},"⁰":{"ha":861,"x_min":0,"x_max":0,"o":"m 213 760 b 429 463 213 586 307 463 b 647 760 554 463 647 586 b 429 1057 647 933 554 1057 b 213 760 307 1057 213 933 z m 340 760 b 429 935 340 858 375 935 b 519 760 485 935 519 858 b 429 585 519 661 485 585 b 340 760 375 585 340 661 z "},"¹":{"ha":861,"x_min":0,"x_max":0,"o":"m 233 472 l 647 472 l 647 582 l 507 582 l 507 1047 l 290 1047 l 215 938 l 375 938 l 375 582 l 233 582 z "},"²":{"ha":861,"x_min":0,"x_max":0,"o":"m 357 856 b 428 928 358 894 383 928 b 490 861 467 928 490 899 b 421 731 490 819 460 782 l 214 472 l 640 472 l 640 585 l 454 585 l 519 664 b 628 871 568 724 628 794 b 425 1056 628 982 551 1056 b 214 856 304 1056 222 967 z "},"³":{"ha":861,"x_min":0,"x_max":0,"o":"m 432 721 b 514 650 478 721 514 697 b 433 574 514 606 479 574 b 347 664 381 574 347 613 l 215 664 b 433 463 217 544 303 463 b 642 643 557 463 642 542 b 563 776 642 706 610 749 b 621 889 592 797 621 838 b 439 1057 621 989 550 1057 b 240 871 321 1057 246 972 l 367 871 b 435 940 369 913 394 940 b 496 882 472 940 496 915 b 432 821 496 843 464 821 l 400 821 l 400 721 z "},"⁴":{"ha":861,"x_min":0,"x_max":0,"o":"m 592 472 l 592 569 l 693 569 l 693 669 l 592 669 l 592 1069 l 143 569 l 471 569 l 471 472 z m 364 669 l 471 799 l 471 669 z "},"⁵":{"ha":861,"x_min":0,"x_max":0,"o":"m 514 672 b 414 582 514 611 464 582 b 299 669 357 582 317 624 l 206 578 b 413 463 247 508 322 463 b 644 675 547 463 644 560 b 454 864 644 778 575 864 b 429 863 446 864 438 864 l 446 935 l 624 935 l 624 1047 l 354 1047 l 286 736 b 397 764 325 756 363 764 b 514 672 468 764 514 725 z "},"⁶":{"ha":861,"x_min":0,"x_max":0,"o":"m 646 675 b 458 876 646 785 567 869 l 546 989 l 446 1057 l 289 850 b 214 675 236 781 214 733 b 429 463 214 556 308 463 b 646 675 553 463 646 556 z m 431 768 b 524 675 482 768 524 728 b 431 581 524 624 482 581 b 339 675 379 581 339 624 b 431 768 339 728 379 768 z "},"⁷":{"ha":861,"x_min":0,"x_max":0,"o":"m 671 1047 l 210 1047 l 210 935 l 476 935 l 253 521 l 361 464 z "},"⁸":{"ha":861,"x_min":0,"x_max":0,"o":"m 429 463 b 642 638 547 463 642 535 b 549 775 642 710 589 757 b 611 896 583 799 611 842 b 429 1057 611 992 526 1057 b 247 896 333 1057 247 992 b 311 775 247 842 276 799 b 218 638 272 757 218 710 b 429 463 218 535 313 463 z m 429 956 b 493 893 465 956 493 931 b 429 832 493 857 465 832 b 368 893 394 832 368 857 b 429 956 368 931 394 956 z m 429 721 b 508 646 474 721 508 690 b 429 571 508 601 474 571 b 351 646 386 571 351 601 b 429 721 351 690 386 721 z "},"⁹":{"ha":861,"x_min":0,"x_max":0,"o":"m 214 844 b 401 643 214 735 293 650 l 315 531 l 415 463 l 571 669 b 646 844 624 739 646 786 b 431 1057 646 964 551 1057 b 214 844 307 1057 214 964 z m 429 751 b 338 844 378 751 338 792 b 429 939 338 896 378 939 b 522 844 482 939 522 896 b 429 751 522 792 482 751 z "},"₀":{"ha":861,"x_min":0,"x_max":0,"o":"m 213 93 b 429 -204 213 -81 307 -204 b 647 93 554 -204 647 -81 b 429 390 647 267 554 390 b 213 93 307 390 213 267 z m 340 93 b 429 268 340 192 375 268 b 519 93 485 268 519 192 b 429 -82 519 -6 485 -82 b 340 93 375 -82 340 -6 z "},"₁":{"ha":861,"x_min":0,"x_max":0,"o":"m 233 -194 l 647 -194 l 647 -85 l 507 -85 l 507 381 l 290 381 l 215 271 l 375 271 l 375 -85 l 233 -85 z "},"₂":{"ha":861,"x_min":0,"x_max":0,"o":"m 357 189 b 428 261 358 228 383 261 b 490 194 467 261 490 232 b 421 64 490 153 460 115 l 214 -194 l 640 -194 l 640 -82 l 454 -82 l 519 -3 b 628 204 568 57 628 128 b 425 389 628 315 551 389 b 214 189 304 389 222 300 z "},"₃":{"ha":861,"x_min":0,"x_max":0,"o":"m 432 54 b 514 -17 478 54 514 31 b 433 -93 514 -61 479 -93 b 347 -3 381 -93 347 -54 l 215 -3 b 433 -204 217 -122 303 -204 b 642 -24 557 -204 642 -125 b 563 110 642 39 610 82 b 621 222 592 131 621 171 b 439 390 621 322 550 390 b 240 204 321 390 246 306 l 367 204 b 435 274 369 246 394 274 b 496 215 472 274 496 249 b 432 154 496 176 464 154 l 400 154 l 400 54 z "},"₄":{"ha":861,"x_min":0,"x_max":0,"o":"m 592 -194 l 592 -97 l 693 -97 l 693 3 l 592 3 l 592 403 l 143 -97 l 471 -97 l 471 -194 z m 364 3 l 471 132 l 471 3 z "},"₅":{"ha":861,"x_min":0,"x_max":0,"o":"m 514 6 b 414 -85 514 -56 464 -85 b 299 3 357 -85 317 -43 l 206 -89 b 413 -204 247 -158 322 -204 b 644 8 547 -204 644 -107 b 454 197 644 111 575 197 b 429 196 446 197 438 197 l 446 268 l 624 268 l 624 381 l 354 381 l 286 69 b 397 97 325 89 363 97 b 514 6 468 97 514 58 z "},"₆":{"ha":861,"x_min":0,"x_max":0,"o":"m 646 8 b 458 210 646 118 567 203 l 546 322 l 446 390 l 289 183 b 214 8 236 114 214 67 b 429 -204 214 -111 308 -204 b 646 8 553 -204 646 -111 z m 431 101 b 524 8 482 101 524 61 b 431 -86 524 -43 482 -86 b 339 8 379 -86 339 -43 b 431 101 339 61 379 101 z "},"₇":{"ha":861,"x_min":0,"x_max":0,"o":"m 671 381 l 210 381 l 210 268 l 476 268 l 253 -146 l 361 -203 z "},"₈":{"ha":861,"x_min":0,"x_max":0,"o":"m 429 -204 b 642 -29 547 -204 642 -132 b 549 108 642 43 589 90 b 611 229 583 132 611 175 b 429 390 611 325 526 390 b 247 229 333 390 247 325 b 311 108 247 175 276 132 b 218 -29 272 90 218 43 b 429 -204 218 -132 313 -204 z m 429 289 b 493 226 465 289 493 264 b 429 165 493 190 465 165 b 368 226 394 165 368 190 b 429 289 368 264 394 289 z m 429 54 b 508 -21 474 54 508 24 b 429 -96 508 -65 474 -96 b 351 -21 386 -96 351 -65 b 429 54 351 24 386 54 z "},"₉":{"ha":861,"x_min":0,"x_max":0,"o":"m 214 178 b 401 -24 214 68 293 -17 l 315 -136 l 415 -204 l 571 3 b 646 178 624 72 646 119 b 431 390 646 297 551 390 b 214 178 307 390 214 297 z m 429 85 b 338 178 378 85 338 125 b 429 272 338 229 378 272 b 522 178 482 272 522 229 b 429 85 522 125 482 85 z "},"⁄":{"ha":0,"x_min":0,"x_max":0,"o":"m -435 56 l -339 -17 l 433 993 l 338 1065 z "},"½":{"ha":1722,"x_min":0,"x_max":0,"o":"m 426 56 l 522 -17 l 1294 993 l 1199 1065 z m 215 472 l 629 472 l 629 582 l 489 582 l 489 1047 l 272 1047 l 197 938 l 357 938 l 357 582 l 215 582 z m 1218 383 b 1289 456 1219 422 1244 456 b 1351 389 1328 456 1351 426 b 1282 258 1351 347 1321 310 l 1075 0 l 1501 0 l 1501 113 l 1315 113 l 1381 192 b 1489 399 1429 251 1489 322 b 1286 583 1489 510 1413 583 b 1075 383 1165 583 1083 494 z "},"¼":{"ha":1722,"x_min":0,"x_max":0,"o":"m 464 56 l 560 -17 l 1332 993 l 1236 1065 z m 253 472 l 667 472 l 667 582 l 526 582 l 526 1047 l 310 1047 l 235 938 l 394 938 l 394 582 l 253 582 z m 1361 0 l 1361 97 l 1463 97 l 1463 197 l 1361 197 l 1361 597 l 913 97 l 1240 97 l 1240 0 z m 1133 197 l 1240 326 l 1240 197 z "},"¾":{"ha":1722,"x_min":0,"x_max":0,"o":"m 464 56 l 560 -17 l 1332 993 l 1236 1065 z m 469 721 b 551 650 515 721 551 697 b 471 574 551 606 517 574 b 385 664 418 574 385 613 l 253 664 b 471 463 254 544 340 463 b 679 643 594 463 679 542 b 600 776 679 706 647 749 b 658 889 629 797 658 838 b 476 1057 658 989 588 1057 b 278 871 358 1057 283 972 l 404 871 b 472 940 407 913 432 940 b 533 882 510 940 533 915 b 469 821 533 843 501 821 l 438 821 l 438 721 z m 1360 0 l 1360 97 l 1461 97 l 1461 197 l 1360 197 l 1360 597 l 911 97 l 1239 97 l 1239 0 z m 1132 197 l 1239 326 l 1239 197 z "},"⅓":{"ha":1722,"x_min":0,"x_max":0,"o":"m 426 56 l 522 -17 l 1294 993 l 1199 1065 z m 215 472 l 629 472 l 629 582 l 489 582 l 489 1047 l 272 1047 l 197 938 l 357 938 l 357 582 l 215 582 z m 1293 249 b 1375 178 1339 249 1375 225 b 1294 101 1375 133 1340 101 b 1208 192 1242 101 1208 140 l 1076 192 b 1294 -10 1078 72 1164 -10 b 1503 171 1418 -10 1503 69 b 1424 304 1503 233 1471 276 b 1482 417 1453 325 1482 365 b 1300 585 1482 517 1411 585 b 1101 399 1182 585 1107 500 l 1228 399 b 1296 468 1231 440 1256 468 b 1357 410 1333 468 1357 443 b 1293 349 1357 371 1325 349 l 1261 349 l 1261 249 z "},"⅔":{"ha":1722,"x_min":0,"x_max":0,"o":"m 426 56 l 522 -17 l 1294 993 l 1199 1065 z m 357 856 b 428 928 358 894 383 928 b 490 861 467 928 490 899 b 421 731 490 819 460 782 l 214 472 l 640 472 l 640 585 l 454 585 l 519 664 b 628 871 568 724 628 794 b 425 1056 628 982 551 1056 b 214 856 304 1056 222 967 z m 1293 249 b 1375 178 1339 249 1375 225 b 1294 101 1375 133 1340 101 b 1208 192 1242 101 1208 140 l 1076 192 b 1294 -10 1078 72 1164 -10 b 1503 171 1418 -10 1503 69 b 1424 304 1503 233 1471 276 b 1482 417 1453 325 1482 365 b 1300 585 1482 517 1411 585 b 1101 399 1182 585 1107 500 l 1228 399 b 1296 468 1231 440 1256 468 b 1357 410 1333 468 1357 443 b 1293 349 1357 371 1325 349 l 1261 349 l 1261 249 z "},"⅛":{"ha":1722,"x_min":0,"x_max":0,"o":"m 426 56 l 522 -17 l 1294 993 l 1199 1065 z m 215 472 l 629 472 l 629 582 l 489 582 l 489 1047 l 272 1047 l 197 938 l 357 938 l 357 582 l 215 582 z m 1290 -10 b 1503 165 1408 -10 1503 63 b 1410 303 1503 238 1450 285 b 1472 424 1444 326 1472 369 b 1290 585 1472 519 1388 585 b 1108 424 1194 585 1108 519 b 1172 303 1108 369 1138 326 b 1079 165 1133 285 1079 238 b 1290 -10 1079 63 1174 -10 z m 1290 483 b 1354 421 1326 483 1354 458 b 1290 360 1354 385 1326 360 b 1229 421 1256 360 1229 385 b 1290 483 1229 458 1256 483 z m 1290 249 b 1369 174 1335 249 1369 218 b 1290 99 1369 129 1335 99 b 1213 174 1247 99 1213 129 b 1290 249 1213 218 1247 249 z "},"⅜":{"ha":1722,"x_min":0,"x_max":0,"o":"m 426 56 l 522 -17 l 1294 993 l 1199 1065 z m 432 721 b 514 650 478 721 514 697 b 433 574 514 606 479 574 b 347 664 381 574 347 613 l 215 664 b 433 463 217 544 303 463 b 642 643 557 463 642 542 b 563 776 642 706 610 749 b 621 889 592 797 621 838 b 439 1057 621 989 550 1057 b 240 871 321 1057 246 972 l 367 871 b 435 940 369 913 394 940 b 496 882 472 940 496 915 b 432 821 496 843 464 821 l 400 821 l 400 721 z m 1290 -10 b 1503 165 1408 -10 1503 63 b 1410 303 1503 238 1450 285 b 1472 424 1444 326 1472 369 b 1290 585 1472 519 1388 585 b 1108 424 1194 585 1108 519 b 1172 303 1108 369 1138 326 b 1079 165 1133 285 1079 238 b 1290 -10 1079 63 1174 -10 z m 1290 483 b 1354 421 1326 483 1354 458 b 1290 360 1354 385 1326 360 b 1229 421 1256 360 1229 385 b 1290 483 1229 458 1256 483 z m 1290 249 b 1369 174 1335 249 1369 218 b 1290 99 1369 129 1335 99 b 1213 174 1247 99 1213 129 b 1290 249 1213 218 1247 249 z "},"⅝":{"ha":1722,"x_min":0,"x_max":0,"o":"m 426 56 l 522 -17 l 1294 993 l 1199 1065 z m 514 672 b 414 582 514 611 464 582 b 299 669 357 582 317 624 l 206 578 b 413 463 247 508 322 463 b 644 675 547 463 644 560 b 454 864 644 778 575 864 b 429 863 446 864 438 864 l 446 935 l 624 935 l 624 1047 l 354 1047 l 286 736 b 397 764 325 756 363 764 b 514 672 468 764 514 725 z m 1290 -10 b 1503 165 1408 -10 1503 63 b 1410 303 1503 238 1450 285 b 1472 424 1444 326 1472 369 b 1290 585 1472 519 1388 585 b 1108 424 1194 585 1108 519 b 1172 303 1108 369 1138 326 b 1079 165 1133 285 1079 238 b 1290 -10 1079 63 1174 -10 z m 1290 483 b 1354 421 1326 483 1354 458 b 1290 360 1354 385 1326 360 b 1229 421 1256 360 1229 385 b 1290 483 1229 458 1256 483 z m 1290 249 b 1369 174 1335 249 1369 218 b 1290 99 1369 129 1335 99 b 1213 174 1247 99 1213 129 b 1290 249 1213 218 1247 249 z "},"⅞":{"ha":1722,"x_min":0,"x_max":0,"o":"m 383 56 l 479 -17 l 1251 993 l 1156 1065 z m 749 1047 l 288 1047 l 288 935 l 554 935 l 331 521 l 439 464 z m 1247 -10 b 1460 165 1365 -10 1460 63 b 1367 303 1460 238 1407 285 b 1429 424 1401 326 1429 369 b 1247 585 1429 519 1344 585 b 1065 424 1151 585 1065 519 b 1129 303 1065 369 1094 326 b 1036 165 1090 285 1036 238 b 1247 -10 1036 63 1131 -10 z m 1247 483 b 1311 421 1283 483 1311 458 b 1247 360 1311 385 1283 360 b 1186 421 1213 360 1186 385 b 1247 483 1186 458 1213 483 z m 1247 249 b 1326 174 1292 249 1326 218 b 1247 99 1326 129 1292 99 b 1169 174 1204 99 1169 129 b 1247 249 1169 218 1204 249 z "},"%":{"ha":861,"x_min":0,"x_max":0,"o":"m 35 50 l 139 -17 l 826 997 l 722 1064 z m 426 861 b 224 1064 426 978 338 1064 b 21 861 110 1064 21 978 b 224 660 21 746 110 660 b 426 861 338 660 426 746 z m 135 861 b 224 950 135 913 174 950 b 313 861 274 950 313 913 b 224 772 313 811 274 772 b 135 861 174 772 135 811 z m 435 186 b 638 -17 435 69 524 -17 b 840 186 751 -17 840 69 b 638 388 840 301 751 388 b 435 186 524 388 435 301 z m 726 186 b 638 97 726 135 688 97 b 549 186 588 97 549 135 b 638 275 549 236 588 275 b 726 186 688 275 726 236 z "},"+":{"ha":861,"x_min":0,"x_max":0,"o":"m 794 431 l 794 565 l 497 565 l 497 863 l 364 863 l 364 565 l 67 565 l 67 431 l 364 431 l 364 135 l 497 135 l 497 431 z "},"−":{"ha":861,"x_min":0,"x_max":0,"o":"m 67 431 l 794 431 l 794 565 l 67 565 z "},"×":{"ha":861,"x_min":0,"x_max":0,"o":"m 336 497 l 103 264 l 199 169 l 431 401 l 661 169 l 758 264 l 526 497 l 758 732 l 661 825 l 431 593 l 199 825 l 103 732 z "},"÷":{"ha":861,"x_min":0,"x_max":0,"o":"m 431 688 b 539 796 490 688 539 736 b 431 903 539 854 490 903 b 322 796 372 903 322 854 b 431 688 322 736 372 688 z m 67 431 l 794 431 l 794 565 l 67 565 z m 431 93 b 539 201 490 93 539 142 b 431 308 539 260 490 308 b 322 201 372 308 322 260 b 431 93 322 142 372 93 z "},"=":{"ha":861,"x_min":0,"x_max":0,"o":"m 79 585 l 782 585 l 782 710 l 79 710 z m 79 290 l 782 290 l 782 415 l 79 415 z "},"<":{"ha":861,"x_min":0,"x_max":0,"o":"m 89 496 l 772 103 l 772 264 l 358 496 l 772 729 l 772 889 z "},">":{"ha":861,"x_min":0,"x_max":0,"o":"m 772 496 l 89 889 l 89 729 l 503 496 l 89 264 l 89 103 z "},"̀":{"ha":0,"x_min":0,"x_max":0,"o":"m 182 796 l -10 1061 l -182 1061 l 11 796 z "},"́":{"ha":0,"x_min":0,"x_max":0,"o":"m -182 796 l -11 796 l 182 1061 l 10 1061 z "},"̂":{"ha":0,"x_min":0,"x_max":0,"o":"m 0 1108 l -268 793 l -115 793 l 0 928 l 115 793 l 268 793 z "},"̃":{"ha":0,"x_min":0,"x_max":0,"o":"m 151 1049 b 89 957 151 989 125 957 b -106 1047 29 957 -8 1047 b -275 819 -204 1047 -275 956 l -151 819 b -89 911 -151 879 -125 911 b 106 821 -31 911 8 821 b 275 1049 204 821 275 913 z "},"̄":{"ha":0,"x_min":0,"x_max":0,"o":"m -224 860 l 224 860 l 224 993 l -224 993 z "},"̆":{"ha":0,"x_min":0,"x_max":0,"o":"m 0 821 b 232 1063 122 821 231 910 l 97 1063 b 0 943 94 989 58 943 b -97 1063 -60 943 -94 989 l -232 1063 b 0 821 -231 910 -122 821 z "},"̇":{"ha":0,"x_min":0,"x_max":0,"o":"m 0 847 b 115 963 63 847 115 899 b 0 1076 115 1025 63 1076 b -115 963 -62 1076 -115 1025 b 0 847 -115 899 -62 847 z "},"̈":{"ha":0,"x_min":0,"x_max":0,"o":"m -157 853 b -44 964 -96 853 -44 903 b -157 1076 -44 1026 -96 1076 b -269 964 -218 1076 -269 1026 b -157 853 -269 903 -218 853 z m 157 853 b 269 964 218 853 269 903 b 157 1076 269 1026 218 1076 b 44 964 96 1076 44 1026 b 157 853 44 903 96 853 z "},"̊":{"ha":0,"x_min":0,"x_max":0,"o":"m -211 988 b 0 776 -211 868 -118 776 b 211 988 118 776 211 868 b 0 1197 211 1107 118 1197 b -211 988 -118 1197 -211 1107 z m 0 900 b -87 988 -49 900 -87 938 b 0 1075 -87 1036 -49 1075 b 88 988 49 1075 88 1036 b 0 900 88 938 49 900 z "},"̋":{"ha":0,"x_min":0,"x_max":0,"o":"m -311 796 l -151 796 l 35 1061 l -125 1061 z m -35 796 l 125 796 l 311 1061 l 151 1061 z "},"̌":{"ha":0,"x_min":0,"x_max":0,"o":"m 0 765 l 268 1081 l 115 1081 l 0 946 l -115 1081 l -268 1081 z "},"̒":{"ha":0,"x_min":0,"x_max":0,"o":"m -161 793 l -22 793 l -22 943 l 163 943 l 163 1071 l -161 1071 z "},"̦":{"ha":0,"x_min":0,"x_max":0,"o":"m 163 -72 l 24 -72 l 24 -222 l -161 -222 l -161 -350 l 163 -350 z "},"̧":{"ha":0,"x_min":0,"x_max":0,"o":"m -178 -351 l -6 -351 l 176 -100 l 4 -100 z "},"̨":{"ha":0,"x_min":0,"x_max":0,"o":"m -39 11 l -111 -68 b -175 -212 -154 -115 -175 -161 b -7 -364 -175 -306 -103 -364 b 176 -189 88 -364 161 -297 l 57 -189 b 0 -244 49 -226 28 -244 b -51 -193 -29 -244 -51 -228 b -12 -112 -51 -167 -40 -144 l 89 0 z "}}}
